<svg viewBox="57.312499999999886 41.13749999999982 1064.3750000000002 3044.175000000001" xmlns="http://www.w3.org/2000/svg" overflow="visible" xmlns:xlink="http://www.w3.org/1999/xlink" width="1064.3750000000002px" height="3044.175000000001px"><g id="Master/Character/Standing" stroke="none" stroke-width="1" fill="none" fill-rule="evenodd"><g id="Standing" transform="translate(-121.000000, 634.000000) scale(1 1)"><g id="Standing/Walking 3" stroke="none" stroke-width="1" fill="none" fill-rule="evenodd"><path d="M1212.2357,2373.58532 C1219.2727,2340.82632 1187.0867,2329.7518 1166.7957,2322.4638 C1152.26173,2313.03627 1098.40935,2280.38782 1056.7407,2240.0839 C1022.6436,2207.10355 999.432131,2164.83502 989.769919,2160.80587 C983.139681,2156.9608 979.480275,2153.60961 978.7917,2150.75231 C972.739579,2125.63853 977.78714,2102.23281 978.7917,2087.0078 C998.1897,2081.9148 1013.7337,2075.5618 1025.3587,2066.6778 C1028.7487,2067.8078 1033.8307,2069.2538 1035.3457,2064.2958 C1045.8517,1994.1998 1050.3867,1924.9328 1058.9347,1854.7828 C1091.2907,1587.6018 1094.9407,1275.4658 1039.2757,1031.4358 C1038.6907,1019.3398 1039.7457,1008.4158 1040.8247,998.0228 C1048.3517,997.2098 1052.9027,989.9238 1059.0487,985.5688 C1068.5877,977.9878 1079.8827,972.1618 1079.4167,958.9118 C1081.6827,957.1958 1081.4187,956.2308 1080.3017,954.0448 C1087.5777,922.7548 1055.1227,889.7828 1045.9437,863.9868 C1062.6287,700.7928 1039.9267,546.5778 1052.5917,383.3448 C1068.5887,376.6508 1057.8337,334.8128 1056.7407,317.5558 C1047.8787,206.3818 990.0877,96.4638 886.0177,60.1448 C880.0687,58.9388 871.1267,52.1388 866.2037,56.7048 C856.6897,52.9358 844.0317,60.3668 836.6687,51.8118 L836.7427,51.7558 C830.5427,43.1588 827.7637,32.2298 825.7257,21.8958 C826.0667,24.8078 826.6357,27.6958 827.3367,30.5188 C809.3957,-20.0452 804.8757,-33.5652 747.1187,-35.9462 C721.1017,-36.2942 686.8057,-35.5132 671.6357,-10.6992 C665.4197,0.8358 667.3187,14.0808 663.4607,26.2228 C656.3787,48.5038 625.8087,37.7368 609.7597,49.3068 C481.3117,90.5048 375.9527,174.5968 341.3217,309.5698 C334.2417,325.8378 326.2117,342.0288 320.2927,358.8178 C319.3767,361.3098 316.8567,369.7428 322.9087,373.6238 L325.8357,375.5008 C287.2817,555.7018 284.7237,707.5458 414.2507,827.6788 C423.9707,879.2998 398.9657,949.7948 408.5777,999.9148 C403.1007,1007.6858 410.0457,1013.9448 417.0477,1014.4438 C417.7227,1014.8188 420.4507,1016.0128 421.1947,1016.3538 C410.0517,1173.6638 456.8357,1385.6698 477.4577,1469.3468 C480.2647,1519.5868 463.1177,1560.8578 427.8437,1588.2378 C388.8707,1612.2418 311.8207,1720.6548 326.1047,1834.3748 C309.4117,1837.6498 292.8397,1839.4458 276.8247,1845.7198 C206.7507,1833.3518 207.4457,1968.4408 202.9807,2015.9398 C195.4187,2095.4698 190.7187,2210.7408 266.2717,2261.6488 C286.1757,2276.0888 326.5337,2292.9928 347.2147,2269.8818 C353.9917,2261.7408 355.6887,2253.8768 353.0227,2245.5628 C387.1727,2197.3138 377.9697,2134.2028 381.1067,2077.6128 C391.0097,2077.0158 401.3707,2081.6608 410.9497,2079.9688 C420.7817,2071.3048 384.9137,2073.6658 381.1937,2073.1578 C381.5747,2064.4308 382.2767,2055.2418 383.1827,2046.4438 C388.8087,2047.5708 396.0157,2050.2708 401.4257,2050.4778 C404.6277,2051.2568 406.8907,2046.8478 404.9577,2044.5628 C400.7357,2040.5358 389.9707,2041.1598 383.9127,2040.5878 C384.9357,2033.2228 386.1867,2025.4798 387.5767,2018.3568 C394.9877,2018.0898 402.6407,2022.8118 409.6577,2021.8458 C404.3467,2018.3018 394.3777,2019.3808 387.9037,2017.0398 C392.1137,1994.0988 400.6917,1972.3218 408.6667,1950.8638 C428.2347,1958.9358 445.1157,1959.2538 464.2187,1956.8338 C472.0327,1958.0358 475.8427,1956.4368 477.1077,1946.6628 L476.6087,1946.0458 C491.7497,1855.4438 540.6077,1769.0708 631.3607,1671.1208 C649.2867,1651.0588 669.5437,1627.4378 683.0407,1601.0278 C710.1617,1546.0658 714.7937,1485.4168 735.6907,1428.3378 C755.2007,1370.9658 781.8777,1316.0868 806.9247,1261.6998 C810.5977,1289.5738 815.5317,1318.1678 820.6607,1345.4988 C843.2347,1442.3518 841.0467,1545.6878 824.4337,1643.0778 C799.8537,1779.4808 811.7017,1916.5308 806.2347,2053.8988 C806.3097,2061.8218 807.2917,2069.0188 806.1297,2077.2678 C805.9757,2077.9028 806.2757,2078.6548 807.0277,2078.6348 L808.4467,2078.6738 C820.2607,2087.3248 836.5767,2088.8878 850.4587,2093.5808 C856.2887,2098.1948 854.6467,2105.5028 855.1807,2111.2048 C856.7057,2135.7758 858.6557,2160.4408 856.2357,2185.7668 C845.5237,2206.2918 832.2207,2202.0518 829.4997,2230.9848 C827.1177,2264.0168 822.9037,2299.1428 838.9897,2328.5558 L832.9037,2329.6058 C823.8717,2348.5588 829.3857,2360.8648 850.6137,2368.8808 C955.4117,2409.9708 1102.8777,2447.2768 1212.2357,2416.2618 C1214.22355,2418.23282 1217.11434,2416.18791 1219.37454,2413.09017 C1221.54641,2410.11351 1223.13601,2406.16469 1222.7827,2403.8728 C1220.9127,2393.8128 1223.4837,2375.44432 1212.2357,2373.58532 Z" id="Skin" fill="#ffdbb4"/><path d="M1025,2417 C1006.17345,2413.60653 898,2389 836,2357 C823.337201,2350.46436 826.453847,2335.02054 830.579846,2324.99335 C832.470122,2320.39952 836.942581,2316.94258 836,2316 C816.176593,2296.17659 831,2244 831,2234 C831,2219.13541 855.093164,2199.0112 851,2191 C846.274671,2181.75152 852.084665,2213.3843 864,2231 C874.38525,2246.35361 890.685719,2247.54141 892.302419,2246.86778 L892.594569,2246.74297 L892.803077,2246.63168 C897.286657,2244.17704 964.991277,2146.64411 993,2161 C1006.18145,2167.75616 1013.26331,2197.6335 1028,2210 C1061.04763,2237.73237 1077,2282 1200,2339 C1213.16526,2345.10097 1213.2807,2358.15097 1210.59633,2368.3596 C1209.60685,2372.12257 1223,2372 1221,2374 C1215.91853,2379.08147 1230.01454,2408.27842 1219,2413 C1175.66538,2431.57618 1063.14852,2423.87625 1025,2417 Z M322.021086,1836 C326.759548,1841.93152 329.085853,1846.26485 329,1849 C327.939146,1882.79739 319.900115,1907.69348 319.649215,1924.31251 L319.633569,1925.43497 L319.661551,1925.84629 C320.147908,1932.58821 330.44517,1958.48206 353,1964 C361.49265,1966.07769 378.159317,1962.41102 403,1953 C388.808873,1992.20139 380.47554,2029.53472 378,2065 C375.08376,2106.77888 377.43731,2154.16105 372,2191 C369.031856,2211.10982 358.283328,2233.48744 346,2249 C342.989812,2252.80155 356.07563,2259.99824 353,2263 C347.240042,2268.62161 333,2288 289,2273 C276.192362,2268.63376 238.928067,2244.37235 218,2198 C202.712636,2164.1263 201.274284,2114.77833 199,2071 C196.486574,2022.61837 205.826056,1947.11852 218,1906 C231.537429,1860.2762 248.368812,1851.34204 251.856639,1848.80951 C252.67153,1848.21782 278.007946,1843.21415 280.447377,1842.94164 L280.873266,1842.89597 L281.209569,1842.86297 L281.395146,1842.79065 C291.342373,1838.94111 302.714613,1837.08685 317.669945,1836.22818 L318.590072,1836.17685 L322.021086,1836 Z" id="Shoes" fill="#FFF"/><path d="M1216.7295,2406.4866 C1122.5585,2448.7746 951.5585,2395.4176 859.0285,2364.5456 C834.0795,2355.5446 825.7685,2353.7806 832.7585,2325.0166 C845.8385,2350.2586 873.9685,2356.3556 900.9185,2361.4166 C992.2085,2382.2276 1085.2785,2420.6496 1182.9095,2401.9026 C1197.2395,2399.6466 1211.4185,2391.8876 1215.5885,2377.5696 C1218.1595,2383.6376 1216.5695,2391.8556 1217.5985,2398.5286 C1217.7895,2401.1886 1217.8485,2404.0656 1216.7295,2406.4866 M835.8585,2249.1966 C837.5585,2232.2436 840.2785,2214.3346 849.9285,2199.3546 C848.8785,2223.5826 863.4285,2264.7636 895.3085,2251.0446 C904.3385,2246.2586 909.3995,2236.6216 915.2085,2228.8826 C934.5185,2203.4226 959.2785,2181.3146 987.2495,2165.2496 C1002.8085,2167.9246 1009.4995,2196.3786 1019.5285,2208.2876 C1008.3485,2213.2716 988.0885,2224.6236 986.0395,2236.3656 C999.9995,2231.6696 1012.8485,2222.9246 1027.4895,2219.8506 C1032.1785,2226.3236 1037.1495,2232.6006 1042.3695,2238.6646 C1035.5485,2241.6686 1008.0485,2255.5686 1008.2295,2262.5076 C1023.0985,2260.0916 1037.5085,2252.8116 1052.4585,2249.8206 C1059.1085,2256.4156 1065.1595,2263.5136 1071.7785,2270.1306 C1061.7785,2274.2496 1051.2185,2278.8486 1045.7585,2288.4486 C1045.4995,2288.8826 1046.1385,2289.3676 1046.4895,2288.9486 C1053.9795,2279.9176 1066.8695,2278.2596 1078.0395,2276.2276 C1095.1785,2292.3666 1114.3695,2306.6036 1135.8485,2317.2546 C1157.3385,2329.0056 1189.9995,2331.6936 1198.5485,2357.1836 C1205.3885,2382.6686 1184.0585,2385.3896 1164.3785,2387.1896 C1144.4685,2390.0216 1124.4185,2390.4516 1104.6385,2388.7976 C1042.8085,2386.2206 984.3585,2368.0176 925.9285,2352.1146 C854.4895,2338.9646 831.3085,2328.3166 835.8585,2249.1966 M972.2295,2157.0836 C944.8585,2177.3256 918.1385,2199.8816 899.1285,2228.1146 C886.5485,2251.0856 869.8085,2237.1036 865.6495,2218.7016 C862.2785,2177.6166 865.1785,2142.1376 861.2295,2100.8076 C899.0795,2105.9676 937.9585,2102.7876 974.9285,2093.6576 C970.4795,2112.1076 968.4385,2119.1116 968.2985,2138.0396 C968.5395,2144.2766 968.4485,2151.8906 972.2295,2157.0836 M835.6095,954.7216 C831.9695,956.0496 830.4165,950.2496 834.0145,948.9366 C836.4855,948.0346 838.9835,947.2296 841.4935,946.4676 C841.8055,945.7956 842.3655,945.2186 843.2295,944.9036 C872.6905,934.1706 905.6025,935.2146 936.3755,937.7806 C952.9155,939.1606 969.4195,941.0136 985.7625,943.9246 C1001.4085,946.7106 1016.9335,950.1306 1032.5865,952.8656 C1035.7825,953.2686 1038.9775,953.6536 1042.1705,954.0126 C1045.9715,954.4406 1046.0015,960.4446 1042.1705,960.0126 C1041.4665,959.9336 1040.7645,959.8406 1040.0605,959.7586 C1039.5945,959.9256 1039.0735,959.9976 1038.4935,959.9056 C1036.0575,959.5206 1033.6255,959.1116 1031.1975,958.6876 C1020.5135,957.3196 1009.8565,955.7476 999.2005,954.1856 C971.1675,950.0756 943.0455,945.9726 914.6985,944.9066 C888.0565,943.9046 860.8535,945.5096 835.6095,954.7216 M1037.4285,385.0176 C1030.9185,474.7776 1032.5985,554.9576 1033.9995,644.8576 C1034.8085,705.3276 1035.1885,765.8176 1033.0885,826.2676 C979.8585,688.6876 996.1495,539.3976 988.5885,394.7876 C1004.3195,389.5476 1021.2185,387.2576 1037.4285,385.0176 M765.7295,1048.6776 C770.7085,1058.1876 779.0695,1065.8376 788.9795,1070.6176 C787.7585,1073.0176 787.3385,1075.7176 787.2085,1078.2476 C769.3585,1081.8976 774.3785,1090.3676 762.3195,1094.4076 C754.4285,1096.5876 746.8385,1097.5176 740.0185,1102.2976 C716.8085,1123.9176 711.0485,1122.3276 686.1385,1103.3076 C686.4795,1101.5876 652.5795,1068.4776 642.0795,1049.9676 C633.3295,1034.5276 624.1685,1018.9776 610.7585,1007.0376 C545.0885,939.7976 475.1285,876.3376 411.5585,807.2376 C284.1595,680.2876 308.4685,536.3376 337.7295,377.7676 C384.9585,383.4076 432.4485,394.7376 474.9795,415.5376 C459.9795,485.5276 459.0185,548.9676 452.5585,619.9876 C450.6085,628.7676 452.8085,645.6776 465.2495,641.7776 C579.5985,732.5676 592.8885,919.1376 742.9485,973.0876 C804.1085,997.9476 778.2985,1018.1276 798.5085,1065.0676 C787.3885,1063.0276 777.4685,1053.7076 772.6885,1044.7876 C770.3195,1040.3576 763.4185,1044.2576 765.7295,1048.6776 M483.4525,992.2686 C479.7725,992.6986 476.0825,993.0166 472.3895,993.3166 C471.9615,993.6636 471.4305,993.9156 470.7805,993.9966 C465.0265,994.7146 459.1595,995.6546 453.3455,996.9286 C444.7195,999.9856 436.0025,1002.7786 427.3255,1005.6866 C426.5655,1006.0606 425.8095,1006.4396 425.0625,1006.8356 C424.3465,1007.2146 423.6535,1007.2746 423.0275,1007.1346 C422.7745,1007.2206 422.5195,1007.3036 422.2665,1007.3906 C422.2015,1007.4126 422.1355,1007.4356 422.0715,1007.4576 C421.8415,1007.4496 421.6105,1007.4426 421.3755,1007.4326 C421.0345,1007.4186 420.4475,1007.3916 419.7525,1007.3466 C419.7375,1007.0816 419.7425,1006.8216 419.7345,1006.5586 C417.2855,1006.6296 415.0905,1003.5686 417.3955,1001.5476 C425.8445,994.1386 437.1955,991.4296 448.0445,989.7916 C459.7885,988.0176 471.6675,987.6466 483.4525,986.2686 C487.2865,985.8206 487.2415,991.8256 483.4525,992.2686 M375.5585,2012.0676 C365.0395,2011.2576 320.0485,2009.7076 314.6495,2016.7676 C320.7295,2019.3376 329.0885,2017.9176 335.6285,2018.2076 C348.3295,2018.7276 360.9995,2019.8476 373.5695,2021.6276 C372.6285,2026.5276 371.7785,2031.4176 371.0795,2036.3276 C358.3995,2037.5376 333.7085,2038.0876 325.6595,2046.9576 C340.0185,2049.2476 354.9685,2047.1876 369.3785,2050.0476 C368.6785,2056.7676 368.1685,2063.4976 367.7895,2070.2276 C362.0485,2070.8376 328.2895,2076.4276 328.3195,2081.7376 C340.9585,2083.4176 354.3485,2081.2076 367.2295,2082.4576 C364.4385,2122.7876 373.8995,2244.5776 318.7785,2252.0276 C270.5885,2249.4876 249.4485,2171.3876 242.8995,2133.9176 C228.3785,2046.6176 230.8695,1953.5376 259.6495,1869.3876 C269.9285,1845.9876 297.9095,1841.9276 321.5695,1840.7176 C322.4685,1844.6776 323.3585,1848.5676 324.3585,1852.4876 C314.0985,1875.7476 310.8295,1901.9376 310.5485,1927.1076 C312.7185,1963.2876 357.3585,1990.1876 389.7785,1966.2876 C383.7185,1981.0876 379.0395,1996.4876 375.5585,2012.0676 M311.7895,2272.3376 C216.3385,2251.8176 200.6785,2141.2776 207.2395,2059.9976 C212.5885,2003.4176 206.1595,1884.1276 258.3885,1850.8876 C190.8885,1912.5076 196.7495,2332.0076 346.3385,2258.7876 C342.6085,2270.6076 323.4285,2274.0176 311.7895,2272.3376 M330.4895,1877.9376 C330.6595,1876.4776 330.8485,1875.0276 331.0485,1873.5676 C341.6385,1902.3376 359.7785,1929.6776 386.7895,1946.3376 C376.4485,1959.2376 356.3085,1963.0776 342.7185,1952.5176 C319.0185,1934.7476 328.8995,1902.5976 330.4895,1877.9376 M655.8485,39.9976 C655.6595,40.3276 655.4585,40.6576 655.2585,40.9776 C653.9385,41.0676 652.6085,41.1876 651.2585,41.3376 C652.7895,40.8776 654.3195,40.4476 655.8485,39.9976 M1225.9995,2388.9776 C1225.7395,2381.8216 1225.6385,2372.5776 1217.2585,2370.0376 C1221.0585,2339.1986 1195.4585,2321.6436 1168.5795,2313.0986 C1145.6595,2299.0766 1119.6685,2289.2826 1098.6085,2272.3786 C1108.3885,2270.5416 1118.1685,2268.3246 1126.8585,2264.0686 C1133.4185,2260.8586 1130.2585,2250.1716 1123.1495,2251.1616 C1110.5585,2252.8226 1099.2495,2259.2236 1087.4185,2263.6726 C1080.6985,2258.1516 1074.1885,2252.3886 1068.0395,2246.2856 C1075.6985,2244.8056 1085.4385,2245.3506 1089.8995,2237.7466 C1091.2895,2235.3696 1090.6685,2232.9036 1088.9895,2231.0666 C1081.2295,2223.2126 1065.8485,2231.0556 1056.2085,2233.3446 C1051.5795,2228.0086 1047.1085,2222.5646 1042.7185,2217.0556 C1049.9995,2216.3856 1068.9385,2217.7166 1065.2295,2205.6996 C1058.1195,2196.3006 1042.8295,2201.9396 1032.5485,2203.8736 C1019.5085,2187.8396 1015.3085,2163.2396 994.9285,2154.4176 C994.1985,2150.5286 989.1195,2150.8266 985.7295,2151.9826 C980.7395,2128.1566 981.1195,2116.0476 982.5795,2091.6276 C997.7085,2087.4376 1012.7185,2081.9376 1025.2985,2072.9176 C1031.0795,2074.6176 1038.0885,2072.6576 1039.2895,2065.8676 C1049.7495,1996.3276 1054.3995,1925.9276 1062.9095,1856.1376 C1093.9385,1599.1276 1100.6985,1285.4276 1043.2585,1031.5176 C1042.8085,1021.8976 1043.4895,1012.2676 1044.4585,1002.7176 C1051.3085,1000.8876 1055.3885,994.1976 1061.0585,990.3276 C1071.5985,981.7376 1082.3195,976.9276 1083.2895,961.9376 C1085.4185,959.9076 1085.6685,956.8376 1084.4995,954.1776 C1087.2295,938.7876 1083.2085,923.5076 1075.0185,910.2076 C1066.0395,895.0576 1057.5585,879.7676 1050.0695,863.8676 C1066.4485,703.6076 1044.2295,548.2876 1056.3785,387.2276 C1071.9585,378.9776 1062.1785,333.1376 1060.7295,317.8576 C1051.6285,217.5076 1004.7785,106.7076 905.1685,64.9676 C898.1785,59.0676 888.4185,57.0676 879.8785,53.8176 C874.1085,50.9776 864.7185,48.5176 860.7685,55.1276 C856.5795,53.1776 843.0885,51.6876 838.4685,48.3076 C837.6085,47.6776 837.0585,46.9876 836.9285,46.2176 C836.5885,46.2276 836.1885,46.1576 835.7585,46.0676 C831.4995,40.0476 827.4385,-1.8824 822.1885,1.1076 C816.4585,15.5076 820.4285,31.7776 825.9095,46.3176 C829.6885,59.1776 834.8695,92.2576 854.9485,83.7976 C858.4095,82.0776 856.2685,77.6076 853.1685,77.2476 C843.6495,74.5276 841.5285,60.5376 837.8485,52.3376 C842.2085,55.9576 862.0695,61.3876 864.2395,62.5376 C907.3195,161.4176 646.8485,156.2276 626.3695,88.0576 C611.7685,64.5076 624.3695,51.7476 650.3995,47.9676 C631.2685,69.2276 655.4895,73.9476 664.6985,53.0976 C673.5085,38.1676 677.5185,20.0276 674.5085,2.8476 C676.0585,-3.1824 677.3695,-11.2424 668.3485,-9.6224 C668.0395,-10.4224 667.5485,-9.7924 667.7395,-9.2224 C664.4485,-3.9824 666.7395,3.5476 665.5695,9.5976 C664.5795,19.4976 661.7685,29.1976 656.9995,37.9576 C648.1495,39.6476 639.3385,41.4576 630.5695,43.4376 C625.3085,32.7476 591.1885,54.0676 582.0285,56.5776 C460.3385,92.5276 367.7985,188.2676 335.4995,309.0276 C328.2895,325.1076 320.5085,341.2676 314.6085,357.8476 C311.9685,365.0276 311.9685,373.9376 319.2185,378.5876 C283.8885,540.6576 275.2685,709.5176 408.7395,831.0776 C411.7685,844.2376 409.7495,858.1976 409.6595,871.5976 C410.5335,895.4266 394.8365,964.3996 402.3245,999.9416 C401.5115,1001.4946 400.9365,1003.1606 400.7115,1004.9396 C399.6635,1013.2016 406.3845,1018.5216 413.7995,1019.8756 C414.0245,1019.9166 414.2565,1019.9556 414.4855,1019.9956 C414.6535,1020.0786 414.8165,1020.1706 414.9895,1020.2476 C406.1385,1155.7476 439.3295,1340.1176 471.4995,1470.8376 C473.8785,1515.7676 460.3295,1556.6376 423.8585,1584.9876 C354.5185,1636.8276 325.3085,1723.3576 317.1985,1805.8176 C316.0485,1814.2676 317.1785,1822.8676 319.0795,1831.1676 C304.0485,1833.9676 289.9795,1835.7876 275.3885,1841.2976 C194.9185,1825.8776 200.6595,1998.7676 194.4995,2050.0676 C189.6785,2125.9076 192.6885,2216.8176 262.3785,2266.4776 C285.8085,2283.1576 327.1685,2299.1776 349.9995,2273.9176 C356.4585,2266.1876 359.9795,2257.1476 357.4385,2247.2676 C390.1685,2199.3376 382.4385,2138.0776 384.8885,2083.5376 C393.4585,2083.8376 402.7985,2087.6576 411.2395,2085.5576 C417.7395,2083.8376 418.5695,2075.4976 413.0695,2072.1776 C405.1285,2067.6776 394.3385,2069.3876 385.4585,2069.0876 C385.7295,2063.8676 386.1195,2058.6476 386.6195,2053.4276 C395.0485,2055.4876 407.1285,2060.4376 409.6385,2048.6576 C410.6495,2037.9276 397.0985,2037.1076 388.6595,2036.6476 C389.2495,2032.5976 389.9095,2028.5676 390.6595,2024.5476 C397.1195,2025.1976 403.9385,2029.3176 410.2895,2027.3476 C413.8885,2025.9276 415.1385,2022.2876 412.5085,2019.3376 C407.6195,2014.5476 399.2585,2015.5076 392.7895,2014.0176 C396.7185,1994.7676 403.8195,1976.3576 410.6595,1957.9476 C423.0395,1962.2476 436.4485,1965.0876 449.6595,1964.0076 C456.5085,1962.5676 463.9895,1962.1576 470.9095,1963.0876 C478.6085,1961.0476 480.3885,1952.8176 481.3995,1946.0976 C481.2495,1945.8576 481.0985,1945.6276 480.9285,1945.4176 C498.7185,1841.8176 562.5395,1752.3176 634.0985,1675.2076 C653.8085,1653.1476 673.1385,1630.2076 686.5285,1604.0076 C713.7295,1549.2476 718.6085,1487.6376 739.4185,1430.7476 C756.9485,1379.0876 780.3785,1329.5476 803.3485,1279.9376 C812.5585,1345.2776 829.7585,1409.5476 831.7295,1475.8076 C834.7295,1559.6376 816.2585,1642.2476 808.3785,1725.4076 C794.2085,1834.8576 807.0795,1944.9876 800.2395,2054.5176 C800.2895,2062.2676 801.2895,2069.5676 800.1885,2077.3176 C799.5795,2081.6076 802.6595,2084.2976 805.8995,2084.3876 C817.7985,2092.1976 832.7495,2094.9676 846.4285,2098.3076 C850.2185,2101.2076 848.5795,2108.3476 849.2495,2112.7176 C850.7185,2137.2676 852.6595,2155.7946 850.2685,2180.5456 C836.8885,2200.3306 827.2495,2197.1696 823.5285,2227.2436 C821.4795,2258.6356 816.9685,2292.5836 830.6885,2321.0806 C824.5485,2322.4776 822.2185,2341.2156 823.1385,2346.1746 C824.6985,2360.1586 837.0285,2364.5826 848.9485,2369.4086 C936.0585,2402.0486 1121.1495,2455.7816 1210.6595,2418.8296 C1217.0695,2422.4576 1224.2185,2415.3456 1226.2895,2409.6216 C1229.0285,2402.6516 1226.5085,2395.8996 1225.9995,2388.9776" id="Ink" fill="#000"/></g></g><g id="Head" transform="translate(405.000000, 189.000000) scale(0.9978902953586498 1)"><g id="Head/Long Afro" stroke="none" stroke-width="1" fill="none" fill-rule="evenodd"><path d="M408.5136,274.9444 C401.6496,191.2694 380.7496,117.1594 282.5446,113.9994 C238.2266,114.3954 192.9876,123.8104 152.2336,141.2304 C53.1776,190.8964 21.7486,372.3774 109.0196,445.4314 C108.5006,445.7264 108.3756,446.5794 108.9886,446.9914 C127.0186,459.1214 147.0596,469.1014 167.1316,477.4874 C220.5976,500.0914 283.5386,509.9094 338.0656,485.3904 C421.2786,449.9824 422.5266,351.4574 408.5136,274.9444 L408.5136,274.9444 Z" id="Skin" fill="#ffdbb4"/><path d="M572.3058,235.9435 C575.7258,232.8635 578.2758,228.8235 579.5658,224.2935 C580.7458,220.1635 580.8258,215.6535 579.5758,211.5335 C578.2358,207.1135 575.3458,203.5935 575.9958,198.9935 C576.0658,198.5435 576.1558,198.0735 576.2958,197.6035 C578.7958,188.9435 584.9458,182.6935 582.7458,173.0935 C582.1258,170.3835 580.9558,167.9435 579.3258,166.0235 C579.5058,163.9435 579.6658,161.8435 579.7958,159.7435 C583.4058,151.2935 583.2758,141.2535 579.4258,132.9335 C578.9558,128.6735 578.2458,124.4535 577.2458,120.3035 C577.7058,116.6335 577.0658,112.5935 575.8858,109.3835 C573.8128,103.7355 571.2508,98.1695 568.4708,92.6955 C568.7978,91.1985 568.6508,89.6165 567.8248,88.2095 C566.3228,85.6525 564.3378,83.4045 562.3088,81.2075 C560.8738,78.6445 559.4288,76.1025 557.9958,73.5935 C557.3318,72.4405 556.5988,71.1615 555.7908,69.8065 C557.9928,65.7205 559.1688,61.7385 556.8398,56.9335 C555.9648,55.1285 553.5588,53.7975 551.5778,53.9155 C549.4128,54.0445 547.2278,54.1415 545.0308,54.2245 C540.9248,49.2665 536.2718,44.8155 531.2858,42.2535 C526.2358,37.9735 521.1158,33.7735 516.1358,29.4835 C514.7258,28.2635 513.3058,27.0435 511.8958,25.8235 C511.8858,25.7935 511.8758,25.7535 511.8658,25.7235 C510.8258,21.9335 509.6558,18.1935 508.4858,14.4335 C507.7558,12.1035 507.5358,9.6635 505.2658,8.3935 C500.5258,5.7435 493.2358,5.3235 487.7958,4.8735 C487.2558,4.3935 486.7158,3.9235 486.1758,3.4435 C488.6458,-3.1365 488.2058,-10.1265 485.0958,-16.7165 C484.0358,-18.9565 480.3558,-19.9665 478.3358,-18.4865 C473.6758,-15.0665 468.1458,-13.8565 462.6758,-14.3565 C454.6358,-20.5365 422.2058,-48.4825 417.1948,-51.4325 C417.1328,-51.5385 417.0828,-51.6445 417.0168,-51.7495 C414.1998,-56.2475 410.7788,-59.8595 406.9328,-62.7555 C406.3838,-63.3285 405.8348,-63.9025 405.2858,-64.4765 C405.7688,-67.9055 407.0398,-71.2165 409.0858,-73.9865 C409.3058,-74.3065 409.5558,-74.6165 409.8058,-74.9165 C413.3858,-79.1765 409.0158,-84.6565 404.0158,-82.4265 C403.6558,-82.2665 403.2958,-82.1065 402.9358,-81.9365 C399.0918,-80.2225 394.8388,-78.3595 390.4098,-76.7875 C388.7888,-77.3945 387.1368,-77.9445 385.6298,-78.5505 L369.4938,-85.0375 C366.8378,-86.1055 364.0298,-87.0105 361.4608,-88.2655 C360.5648,-94.2245 354.5928,-98.1325 348.3908,-97.9285 C348.7488,-99.0725 349.2828,-100.1835 350.0358,-101.2365 C350.2558,-101.5465 350.4958,-101.8465 350.7458,-102.1365 C353.9358,-105.8465 349.6758,-112.7265 345.1158,-109.4265 C344.7958,-109.1965 344.4658,-108.9665 344.1458,-108.7365 C342.8788,-107.8475 341.5818,-107.0135 340.2708,-106.2055 C338.1718,-107.1215 335.8078,-107.3305 333.3338,-106.3615 C327.8558,-104.2165 322.8058,-102.0355 317.9828,-98.6735 C317.7868,-98.5365 317.5838,-98.4215 317.3858,-98.2925 C314.9918,-101.1845 311.1908,-103.1185 307.7678,-103.0975 C307.6978,-103.0975 307.6438,-103.0985 307.5818,-103.0995 C305.0228,-106.9985 300.3318,-109.2645 295.8018,-108.7135 C296.1078,-114.3085 290.5068,-119.3015 285.4078,-119.9085 C279.4498,-120.6165 274.0798,-117.1575 272.2918,-111.3455 C271.7938,-109.7275 271.2968,-108.1085 270.7988,-106.4895 C266.1728,-108.8245 261.2908,-110.6135 256.1908,-111.5065 C244.5778,-113.5405 233.2228,-111.3745 222.0318,-108.1505 C220.9138,-107.8285 219.7968,-107.4975 218.6798,-107.1675 C217.0838,-109.0165 215.5868,-110.9095 214.1558,-112.6765 C211.6858,-115.7265 205.7558,-113.2865 206.1558,-109.3665 C206.4338,-106.6615 205.3348,-104.7155 203.5658,-103.3325 C201.6228,-103.0485 199.7448,-102.9625 196.9128,-103.0195 C193.1698,-103.0955 191.4668,-103.2125 187.5528,-104.7385 C185.7288,-105.4485 183.4578,-107.3155 182.3948,-108.9915 C178.3198,-115.4185 167.9688,-117.1495 163.0388,-111.0215 C157.8508,-113.2925 151.3008,-110.1605 148.4208,-105.7445 C146.9138,-103.4355 143.7698,-102.1445 139.8118,-101.0345 C136.8408,-100.2025 133.8028,-99.5725 130.7508,-99.0215 C129.3908,-100.8665 126.5268,-102.1035 124.4258,-100.5565 C123.0028,-99.5055 121.6208,-98.4265 120.2578,-97.3205 C109.7478,-95.8725 99.2928,-95.8205 89.2718,-99.9185 C80.7878,-103.3885 72.9978,-93.9115 74.3978,-85.9555 C71.9408,-84.6765 69.2748,-83.8255 66.8478,-82.4855 C61.5528,-79.5595 57.2048,-74.9345 54.5548,-69.5005 C54.0798,-68.5275 53.6508,-67.5395 53.2418,-66.5465 C51.2628,-64.9355 49.3058,-63.2815 47.3958,-61.5365 C44.2158,-63.1665 41.0458,-64.7965 37.8658,-66.4265 C35.4858,-67.6465 31.4758,-66.7965 31.0058,-63.6365 C30.2358,-58.4365 28.3658,-54.1265 25.6958,-50.5165 C17.0158,-45.9565 8.6658,-40.8365 0.6758,-35.1465 C-8.5142,-32.2665 -18.2842,-30.5865 -26.3142,-28.6965 C-29.0642,-28.0465 -30.5642,-24.4565 -29.0142,-22.0665 C-27.3742,-19.5365 -25.7342,-17.0065 -24.1042,-14.4765 C-28.6742,-10.0165 -32.9642,-5.3565 -37.0142,-0.5365 C-48.2842,12.8635 -57.7142,27.5535 -66.1542,43.1135 C-69.4942,44.4635 -72.8342,45.8035 -76.1742,47.1535 C-79.3942,48.4535 -80.8442,52.1935 -78.2342,54.9435 C-76.9942,56.2535 -75.8842,57.6335 -74.9342,59.0835 C-79.6642,66.9135 -85.2342,74.0535 -93.0242,78.7335 C-95.3942,80.1535 -97.1742,82.3835 -98.1242,84.9135 C-98.9342,85.4535 -99.7342,86.0335 -100.5242,86.6235 C-102.7242,88.2835 -104.0542,91.9035 -101.4742,94.0535 C-99.6642,95.5735 -97.9642,97.3735 -96.5242,99.3635 C-96.2142,100.4935 -95.8942,101.6335 -95.5742,102.7635 C-102.8142,109.4235 -108.8342,117.1635 -113.3542,125.8435 C-114.4242,125.6735 -115.5242,125.7835 -116.4142,126.4435 C-124.4942,132.4135 -124.7342,141.9235 -121.4842,150.4235 C-123.4442,163.2335 -122.1842,176.3635 -118.4042,188.7735 C-123.3742,193.7335 -126.3642,200.8935 -127.5842,207.7935 C-129.7342,219.9135 -129.8842,238.5535 -130.4442,250.9235 C-135.8642,256.1535 -139.7242,262.9235 -141.8742,270.2035 C-143.6842,271.1035 -145.4942,272.0035 -147.3042,272.9035 C-148.9142,273.7035 -150.0942,275.8135 -150.000111,277.5935 C-149.5342,286.2035 -145.9842,293.0035 -141.2742,299.1635 C-139.6042,303.9135 -137.1342,308.2935 -133.8942,312.4935 C-131.6542,315.3735 -129.4642,318.1335 -127.5342,321.2435 C-127.3342,321.5535 -127.2142,321.8435 -127.1242,322.0435 C-127.8842,322.8635 -128.5142,324.2235 -129.0642,325.1935 C-133.6842,333.3335 -133.7542,342.8735 -127.1942,349.9635 C-129.6642,351.9835 -129.7442,356.0635 -127.5642,358.5635 C-113.3742,374.7735 -101.5442,394.4835 -81.8542,403.0935 C-81.7642,403.2435 -81.6842,403.3935 -81.6142,403.5435 C-85.6042,413.1435 -86.1442,418.1335 -82.8842,428.0535 C-82.8642,428.1435 -82.8342,428.2235 -82.8042,428.3135 C-81.0642,433.5135 -77.8642,441.8435 -72.0942,443.4635 C-70.2742,443.9735 -68.4842,444.2035 -66.7142,444.1935 C-62.1342,448.6035 -57.5642,453.0235 -52.9942,457.4435 C-52.5942,459.6335 -52.3442,461.8435 -52.2642,464.0735 C-52.1342,467.8035 -48.6242,470.8235 -44.8442,469.7235 C-43.5142,469.3335 -36.1542,462.1835 -34.8042,462.2235 C-34.1242,462.9035 -33.4642,463.5835 -32.8042,464.2735 C-30.3742,466.8235 -27.0042,470.8435 -26.7242,473.5135 C-26.1842,478.5435 -22.8842,484.3035 -17.5542,485.3235 C-15.5542,487.3535 -12.3542,487.9635 -9.9042,485.3135 C-9.7442,485.1435 -9.5842,484.9735 -9.4142,484.8235 C-9.1542,484.7935 -8.9042,484.7635 -8.6442,484.7335 C-7.4642,488.2535 -6.2842,491.7735 -5.0942,495.2835 C-2.7642,502.2035 6.1358,506.6535 12.4558,502.6135 C13.4758,503.2235 14.4758,503.8735 15.4758,504.5235 C16.9958,505.4935 18.5358,506.4835 20.1158,507.4135 C20.2058,507.6735 20.2958,507.9335 20.3758,508.1835 C21.3958,511.2935 25.6358,512.9635 28.2458,511.1735 C29.0558,511.4335 29.8858,511.6435 30.7258,511.8135 C35.1358,512.6835 39.5758,512.4435 43.8358,510.9735 C46.8858,509.9335 49.7958,507.9435 53.0758,507.6735 C53.2808,507.6565 53.4918,507.6705 53.6998,507.6645 C56.3758,513.1465 62.4908,517.8705 67.3098,519.4755 C73.6218,521.5785 80.0818,520.8265 85.8298,518.2515 C87.3808,521.3525 89.3288,524.2885 91.6558,527.0035 C92.9458,528.5035 95.2758,528.1835 96.6058,527.0035 C99.1318,524.7645 101.6418,522.5145 104.1478,520.2615 C105.9618,519.5625 107.7928,518.7235 109.7028,517.9435 C115.6768,515.5035 122.2258,514.4925 127.7508,510.9665 C130.3738,509.2925 132.8408,507.1565 134.8728,504.6815 C138.7008,502.4715 142.2178,499.7185 145.3858,496.5635 C146.9658,496.5735 148.6158,496.2035 150.2158,495.3935 C156.9058,491.9935 160.4258,485.0735 160.7358,477.9935 C166.1558,465.2435 169.3558,451.6435 170.2358,437.7235 C170.5158,433.1535 170.5658,428.5435 170.2158,423.9735 C169.9758,420.7535 169.1658,418.6035 167.9458,415.6935 C167.5358,414.7435 167.1658,413.8735 166.8758,412.9135 C166.9458,409.8335 166.9858,406.7535 167.0258,403.6835 C167.8558,401.0935 169.3358,398.6835 171.3958,396.6535 C174.5858,393.5135 176.0458,386.9935 173.1458,383.1135 C171.2558,380.6035 169.3758,378.0935 167.4858,375.5835 C168.0158,364.8135 170.5958,347.6735 164.8758,345.8735 C165.1058,344.2735 165.5958,342.6935 165.8758,341.1035 C167.2158,333.4635 166.4158,326.6335 162.3558,319.9535 C161.5058,318.5635 160.7858,317.3335 160.1958,316.1335 C159.8258,313.9335 159.4558,311.7335 159.0858,309.5335 C158.5158,306.1435 157.9558,302.7235 157.4758,299.2835 C157.2258,294.9035 156.9958,290.5235 156.7458,286.1335 C156.5158,282.0935 156.2558,278.0535 155.9858,274.0035 C156.0958,272.1935 156.2558,270.3835 156.4858,268.5735 C157.8558,257.7835 162.2658,253.7935 169.9058,246.2935 C171.1058,246.1035 172.2958,245.8935 173.4658,245.6535 C178.9158,244.5235 184.6158,242.7735 190.2258,243.4035 C196.3158,244.0835 201.7658,246.7135 207.6858,243.3535 C209.4258,242.3535 213.2558,239.5935 213.5858,237.4035 C213.6058,237.2635 213.6358,237.1435 213.6758,237.0535 C214.0858,236.9935 214.6158,236.9435 214.9458,236.9335 C219.6458,236.7735 224.1358,238.6235 228.8758,238.1135 C234.4858,237.5135 239.5058,235.0235 242.8058,231.3335 C247.0358,232.3735 251.3558,232.8435 255.7458,232.2635 C259.4258,231.7835 262.7258,230.5835 265.9858,228.8035 C268.3558,227.5235 267.6058,227.1535 270.1858,228.1935 C276.0558,230.5735 281.3658,233.7135 287.9758,232.0835 C291.4058,231.2435 294.3658,229.3935 296.8558,226.9035 C297.4458,226.3235 298.4458,225.4535 299.1158,224.6335 C302.2558,226.2235 310.1558,229.8135 311.4558,230.1335 C315.1358,231.0335 319.0358,230.8935 322.6158,229.6935 C325.2458,228.8135 328.4658,226.4135 330.7758,225.9235 C333.7658,225.2835 340.4058,229.4435 343.9758,230.8735 C350.2358,233.3835 356.8658,234.0035 363.2058,231.4135 C365.3858,230.5235 369.6258,226.9735 371.2558,227.0035 C373.9058,230.2735 381.3058,248.1635 383.5258,254.6935 C392.5158,281.0935 394.8458,363.5235 390.6958,384.5535 C390.5358,385.1735 390.3658,385.7835 390.1958,386.4035 C385.0958,404.6935 379.7858,423.2935 371.2558,440.3335 C363.2058,456.3935 352.0758,470.8535 336.1058,479.6235 C319.5458,488.7235 300.1058,491.1135 281.4858,489.8835 C269.4958,489.1035 257.7058,486.6935 246.1058,483.6735 C240.0458,482.1035 234.0358,480.3535 228.0558,478.5335 C225.4458,477.7435 222.7958,477.0035 220.2358,476.0835 C215.7158,474.4535 213.3458,474.3235 209.0158,476.4135 C205.0758,478.3135 204.0658,483.9235 206.1158,487.4535 C209.4558,493.2135 215.5758,493.6135 221.4858,495.2935 C227.5058,497.0035 233.5458,498.6435 239.6258,500.1135 C251.2758,502.9135 263.1158,505.0635 275.0558,506.0535 C296.4358,507.8435 318.4658,505.0835 337.9258,495.7535 C340.1258,494.6935 342.2458,493.5635 344.2958,492.3435 C343.5358,493.4035 342.7658,494.4635 341.9858,495.5135 C339.8258,498.4235 341.4258,503.3735 344.4558,504.9635 C345.4158,505.4635 346.3758,505.9435 347.3458,506.4135 C347.4758,506.7235 347.6158,507.0335 347.7758,507.3435 C350.5458,512.9035 356.3458,516.1835 362.2558,517.6035 C369.2758,519.2835 377.1358,518.0935 384.2758,517.8835 C390.8958,517.6835 397.5158,517.4835 404.1258,517.2835 C405.6858,517.2435 407.2458,517.1935 408.8058,517.1435 C416.6658,516.9035 424.5158,516.6735 432.3658,516.4335 C439.3658,516.2235 439.0358,516.7635 445.6058,513.9635 C448.5358,512.7035 450.9358,510.9235 452.9558,508.5535 C454.2158,507.9935 455.4358,507.3535 456.6058,506.6235 C460.3658,504.2835 463.7058,501.1435 466.7858,497.6835 C472.0158,499.3335 479.3458,497.8035 480.3658,491.2335 C482.0058,480.7235 495.6658,476.2335 502.0458,468.6335 C507.1958,462.5035 510.8758,454.4735 510.6858,446.7635 C523.6658,440.4835 530.7258,423.9335 532.3758,409.8935 C533.1458,403.3835 533.0258,396.4135 534.1358,389.7935 C534.6258,389.2635 535.0658,388.7035 535.4358,388.1035 C538.6958,382.8335 541.5358,377.4035 544.0358,371.8435 C547.4358,369.3935 551.5258,367.8835 555.8058,367.6335 C566.3258,367.0235 568.3058,352.8335 558.2758,349.4135 C558.2258,349.3935 558.1858,349.3835 558.1358,349.3635 C560.8558,342.5635 560.6258,334.5135 557.3258,328.0735 C557.4658,327.3735 557.5958,326.6835 557.7258,325.9835 C563.3558,319.9335 566.5858,311.5235 566.2258,303.3335 C568.7958,301.5235 571.6758,300.1235 574.8258,299.2535 C579.6958,297.9135 579.7258,291.9735 576.1258,289.3135 C574.6758,288.2435 573.4758,286.9935 572.4758,285.6135 C574.9658,278.1335 573.9858,269.4835 568.8958,263.3435 C572.1258,259.2035 575.3558,255.0635 578.5858,250.9235 C580.7258,248.1835 581.8558,243.5335 578.5858,240.9335 C576.4958,239.2635 574.4058,237.6035 572.3058,235.9435 Z" id="Ink" fill="#000"/></g></g><g id="Beard" transform="translate(527.000000, 518.000000) scale(1 1)" fill="#000"><g id="Beard/None" stroke="none" stroke-width="1" fill="none" fill-rule="evenodd" fill-opacity="0"/></g><g id="Face" transform="translate(563.000000, 366.000000) scale(1 1)" fill="#000"><g id="Face/Cheeky" stroke="none" stroke-width="1" fill="none" fill-rule="evenodd"><path d="M166.9438,221.352 C168.4778,218.685 172.0098,216.214 175.2418,216.593 C189.7208,218.291 189.6958,235.845 184.1048,246.093 C179.1478,255.18 168.8888,260.514 158.6208,259.735 C147.8338,258.916 138.6428,252.574 134.5978,242.483 C131.9228,235.808 130.6868,223.485 137.8028,219 C137.9348,218.916 138.1528,218.937 138.2578,219.058 C141.6698,223.027 141.8038,228.986 144.7908,233.405 C147.5688,237.515 151.8848,240.909 156.9408,241.433 C160.7168,241.825 164.5368,240.463 166.0138,237.073 C166.812891,235.239364 166.721899,234.243744 166.421516,232.981708 L166.148563,231.885055 C165.202801,228.043565 164.778057,225.118714 166.9438,221.352 Z M170.814304,144.367155 C178.365682,148.9572 189.871664,159.660291 181.748119,171.039573 C172.185929,181.073062 158.418535,169.568982 151.634201,164.366134 C145.343449,160.333898 138.275437,170.704507 144.112,175.412823 C193.135736,211.708059 213.030606,145.567387 174.633685,138.970386 C170.406047,138.243425 168.835891,142.947174 170.814304,144.367155 Z M91.0715,112.8926 C95.7065,105.9386 106.2865,106.9626 108.8395,115.2146 C110.2225,119.6846 108.3125,123.7026 108.4115,128.1666 C108.4945,131.9376 108.2475,136.1396 107.0915,139.7916 C104.4555,148.1196 96.9655,154.0016 88.1045,153.7576 C79.2725,153.5146 71.4935,147.9246 67.7945,140.0516 C64.0825,132.1486 64.8685,123.9696 67.5785,115.9336 C67.7085,115.5476 68.2145,115.3606 68.5195,115.6856 C71.7228333,119.089767 74.0678333,122.683517 76.4943148,126.495785 L78.9809333,130.40279 C80.8812656,133.344819 83.6431037,137.103142 87.1914615,136.867072 L87.7238987,136.814547 C88.7099852,136.729908 88.5588846,136.9256 89.3195,135.5816 C89.6715,134.9596 89.6075,133.8036 89.7775,133.0696 L89.8365,132.8216 L89.8365,132.8216 L89.8043384,132.68798 C89.7292832,132.332503 89.6547866,131.66266 89.5942529,130.500284 L89.5815,130.2436 C89.3245,124.8066 87.7875,117.8196 91.0715,112.8926 Z M208.5632,117.5221 C207.7322,108.6281 220.2362,106.6531 224.3932,113.2341 C226.561303,116.665997 227.192546,120.977055 227.67203,125.0615 L227.8962,127.0001 C228.3882,131.1951 228.5832,135.5591 226.7622,139.4721 C223.8942,145.6351 217.6572,148.8931 210.9292,148.3771 C204.5042,147.8831 198.6422,144.1581 195.5522,138.5031 C192.7972,133.4571 190.0582,123.6051 193.4042,118.3421 C193.6062,118.0231 194.0102,117.9821 194.2872,118.2281 C197.4492,121.0351 197.9642,126.1551 199.8442,129.8121 C201.7832,133.5841 204.7242,137.2601 209.1812,137.8331 C213.4452,138.3811 215.0742,136.0521 213.9862,131.9871 C212.5832,126.7391 209.0912,123.1691 208.5632,117.5221 Z M94.4489,60.0159 L96.4937284,59.2327124 C103.499922,56.5860716 113.118768,53.5268605 118.8149,59.2239 C122.3289,62.7369 122.9979,67.9119 120.4899,72.1989 C117.4509,77.3919 111.9999,77.5199 106.7359,78.2849 C100.7489,79.1549 94.6599,80.8089 89.0859,83.1669 C82.8069,85.8239 76.9799,89.1359 71.2709,92.8349 C65.8449,96.3499 60.4379,102.0949 53.9429,103.1779 C53.6779,103.2219 53.3769,103.1079 53.3079,102.8169 C51.8329,96.4669 55.9319,90.2179 59.5899,85.2639 C64.0159,79.2659 69.3789,74.3429 75.3729,69.9289 C81.1579,65.6679 87.7679,62.5889 94.4489,60.0159 Z M221.7162,82.5925 L222.340762,82.4830541 C226.589355,81.7757704 230.439386,81.9386395 233.6412,85.3035 C236.0852,87.8705 237.0272,91.1975 235.8622,94.5915 C234.7872,97.7225 232.3832,100.9035 228.8942,101.5595 C217.1152,103.7755 204.0682,103.4095 192.2302,101.7315 C186.814067,100.963367 181.349151,100.023624 176.073673,98.5415284 L173.646557,97.8379125 C169.242357,96.5798884 164.200291,95.2655909 161.0012,92.0265 C159.8512,90.8625 160.5142,89.1965 161.8902,88.6575 C167.4722,86.4715 175.1232,87.6345 181.0752,87.4635 C187.9992,87.2655 194.9342,86.7465 201.8252,86.0315 C208.5592,85.3315 215.0752,83.8105 221.7162,82.5925 Z" id="Ink" fill="#000"/></g></g><g id="Mask" transform="translate(428.000000, 479.000000) scale(1 1)" fill="#000"><g id="Mask/None" stroke="none" stroke-width="1" fill="none" fill-rule="evenodd" fill-opacity="0"/></g><g id="Accessories" transform="translate(451.000000, 421.000000) scale(1 1)" fill="#000"><g id="Accessories/None" stroke="none" stroke-width="1" fill="none" fill-rule="evenodd" fill-opacity="0"/></g></g></svg>