<svg viewBox="57.312499999999886 246.82500000000027 1064.3750000000002 2838.4874999999997" xmlns="http://www.w3.org/2000/svg" overflow="visible" xmlns:xlink="http://www.w3.org/1999/xlink" width="1064.3750000000002px" height="2838.4874999999997px"><g id="Master/Character/Standing" stroke="none" stroke-width="1" fill="none" fill-rule="evenodd"><g id="Standing" transform="translate(-121.000000, 634.000000) scale(1 1)"><g id="Standing/Walking 1" stroke="none" stroke-width="1" fill="none" fill-rule="evenodd"><path d="M1212.23524,2373.58175 C1219.27224,2340.82275 1187.08624,2329.74822 1166.79524,2322.46022 C1152.26126,2313.03269 1098.40889,2280.38424 1056.74024,2240.08032 C1022.64314,2207.09997 999.431667,2164.83144 989.769455,2160.80229 C983.139217,2156.95722 979.479811,2153.60604 978.791236,2150.74874 C972.739115,2125.63495 977.786675,2102.22924 978.791236,2087.00422 C998.189236,2081.91122 1013.73324,2075.55822 1025.35824,2066.67422 C1028.74824,2067.80422 1033.83024,2069.25022 1035.34524,2064.29222 C1045.85124,1994.19622 1050.38624,1924.92922 1058.93424,1854.77922 C1091.29024,1587.59822 1094.94024,1275.46222 1039.27524,1031.43222 C1038.69024,1019.33622 1039.74524,1008.41222 1040.82424,998.019225 C1048.35124,997.206225 1052.90224,989.920225 1059.04824,985.565225 C1068.58724,977.984225 1079.88224,972.158225 1079.41624,958.908225 C1081.68224,957.192225 1081.41824,956.227225 1080.30124,954.041225 C1087.57724,922.751225 1055.12224,889.779225 1045.94324,863.983225 C1062.62824,700.789225 1039.92624,546.574225 1052.59124,383.341225 C1068.58824,376.647225 1057.83324,334.809225 1056.74024,317.552225 C1047.87824,206.378225 990.087236,96.4602247 886.017236,60.1412247 C880.068236,58.9352247 871.126236,52.1352247 866.203236,56.7012247 C856.689236,52.9322247 844.031236,60.3632247 836.668236,51.8082247 L836.742236,51.7522247 C830.542236,43.1552247 827.763236,32.2262247 825.725236,21.8922247 C826.066236,24.8042247 826.635236,27.6922247 827.336236,30.5152247 C809.395236,-20.0487753 804.875236,-33.5687753 747.118236,-35.9497753 C721.101236,-36.2977753 686.805236,-35.5167753 671.635236,-10.7027753 C665.419236,0.832224686 667.318236,14.0772247 663.460236,26.2192247 C656.378236,48.5002247 625.808236,37.7332247 609.759236,49.3032247 C481.311236,90.5012247 375.952236,174.593225 341.321236,309.566225 C334.241236,325.834225 326.211236,342.025225 320.292236,358.814225 C319.376236,361.306225 316.856236,369.739225 322.908236,373.620225 L325.835236,375.497225 C287.281236,555.698225 284.723236,707.542225 414.250236,827.675225 C423.970236,879.296225 398.965236,949.791225 408.577236,999.911225 C403.100236,1007.68222 410.045236,1013.94122 417.047236,1014.44022 C417.722236,1014.81522 420.450236,1016.00922 421.194236,1016.35022 C410.051236,1173.66022 456.835236,1385.66622 477.457236,1469.34322 C480.264236,1519.58322 463.117236,1560.85422 427.843236,1588.23422 C388.870236,1612.23822 311.820236,1720.65122 326.104236,1834.37122 C309.411236,1837.64622 292.839236,1839.44222 276.824236,1845.71622 C206.750236,1833.34822 207.445236,1968.43722 202.980236,2015.93622 C195.418236,2095.46622 190.718236,2210.73722 266.271236,2261.64522 C286.175236,2276.08522 326.533236,2292.98922 347.214236,2269.87822 C353.991236,2261.73722 355.688236,2253.87322 353.022236,2245.55922 C387.172236,2197.31022 377.969236,2134.19922 381.106236,2077.60922 C391.009236,2077.01222 401.370236,2081.65722 410.949236,2079.96522 C420.781236,2071.30122 384.913236,2073.66222 381.193236,2073.15422 C381.574236,2064.42722 382.276236,2055.23822 383.182236,2046.44022 C388.808236,2047.56722 396.015236,2050.26722 401.425236,2050.47422 C404.627236,2051.25322 406.890236,2046.84422 404.957236,2044.55922 C400.735236,2040.53222 389.970236,2041.15622 383.912236,2040.58422 C384.935236,2033.21922 386.186236,2025.47622 387.576236,2018.35322 C394.987236,2018.08622 402.640236,2022.80822 409.657236,2021.84222 C404.346236,2018.29822 394.377236,2019.37722 387.903236,2017.03622 C392.113236,1994.09522 400.691236,1972.31822 408.666236,1950.86022 C428.234236,1958.93222 445.115236,1959.25022 464.218236,1956.83022 C472.032236,1958.03222 475.842236,1956.43322 477.107236,1946.65922 L476.608236,1946.04222 C491.749236,1855.44022 540.607236,1769.06722 631.360236,1671.11722 C649.286236,1651.05522 669.543236,1627.43422 683.040236,1601.02422 C710.161236,1546.06222 714.793236,1485.41322 735.690236,1428.33422 C755.200236,1370.96222 781.877236,1316.08322 806.924236,1261.69622 C810.597236,1289.57022 815.531236,1318.16422 820.660236,1345.49522 C843.234236,1442.34822 841.046236,1545.68422 824.433236,1643.07422 C799.853236,1779.47722 811.701236,1916.52722 806.234236,2053.89522 C806.309236,2061.81822 807.291236,2069.01522 806.129236,2077.26422 C805.975236,2077.89922 806.275236,2078.65122 807.027236,2078.63122 L808.446236,2078.67022 C820.260236,2087.32122 836.576236,2088.88422 850.458236,2093.57722 C856.288236,2098.19122 854.646236,2105.49922 855.180236,2111.20122 C856.705236,2135.77222 858.655236,2160.43722 856.235236,2185.76322 C845.523236,2206.28822 832.220236,2202.04822 829.499236,2230.98122 C827.117236,2264.01322 822.903236,2299.13922 838.989236,2328.55222 L832.903236,2329.60222 C823.871236,2348.55522 829.385236,2360.86122 850.613236,2368.87722 C955.411236,2409.96722 1102.87724,2447.27322 1212.23524,2416.25822 C1214.22308,2418.22924 1217.11387,2416.18434 1219.37408,2413.0866 C1221.54594,2410.10993 1223.13555,2406.16112 1222.78224,2403.86922 C1220.91224,2393.80922 1223.48324,2375.44075 1212.23524,2373.58175 Z" id="Skin" fill="#ffdbb4"/><path d="M417.836026,836.534224 L425.75897,844.737503 L429.551713,848.646024 L435.090368,854.322318 C446.942826,866.428253 459.294924,878.779625 477.23488,896.518004 L523.522067,942.195806 L532.439576,951.05404 L536.800148,955.39556 L518.842901,957.634717 L515.068836,958.116803 L512.141467,958.501592 L509.221632,958.896594 C490.409361,961.481457 477.958475,964.003149 465.590662,968.068532 C447.497053,974.016023 433.401408,982.607978 422.875106,994.970243 L422.376549,995.561776 L418.07192,1000.72176 L417.104178,994.072042 C416.125361,987.346217 415.732564,980.373733 415.761895,972.201365 L415.791534,969.028624 L415.839911,966.498779 L415.894924,964.416746 C415.928969,963.248011 415.9709,961.970276 416.022434,960.508226 L416.422261,949.552165 L416.521231,946.304479 L416.559034,944.768116 C416.575578,944.022915 416.588714,943.306415 416.599022,942.592646 L416.622,940.367 L416.524871,938.007723 L416.408511,934.927346 L416.332857,932.720824 C415.554034,908.977584 415.956084,886.291927 417.414657,847.547735 L417.836026,836.534224 Z M616.342031,49.6766639 L615.510443,54.5088058 C610.854415,81.5637719 623.030274,103.939135 649.171888,120.304035 C673.098762,135.282485 707.623945,144.270002 744.614741,145.694723 C781.296537,147.107543 817.081847,140.940538 843.212583,128.310822 C871.21778,114.775127 886.470866,94.8857416 885.868098,70.142714 L885.844976,69.3914412 L885.668762,64.6510312 L890.027185,66.5236469 C944.664826,89.9989521 987.047567,134.789849 1013.66308,193.542063 C1037.97146,247.201415 1047.69787,309.915553 1041.46807,368.721858 L1041.2744,370.502657 L1040.8867,373.977562 L1037.51106,373.066328 C1031.49041,371.441089 1016.01301,376.058157 992.007096,387.04389 L989.991,387.972 L978.997,395.616 L978.810588,401.274626 C971.470913,632.133491 993.578374,796.806015 1044.98798,895.189741 L1046.55482,898.150775 L1048.17212,901.130407 C1049.0989,902.87156 1050.14637,904.680875 1051.46538,906.84255 L1053.00094,909.326539 L1055.33602,913.057965 L1056.60082,915.105373 L1057.22048,916.122652 C1059.72125,920.252329 1061.23207,923.066732 1062.66927,926.329049 C1064.95156,931.509685 1066.22922,936.427267 1066.40669,941.41071 L1066.42313,942.034007 L1066.425,942.238 L1066.52579,942.43161 C1067.2816,943.968667 1067.23994,945.81375 1066.40032,947.384337 L1066.26839,947.617793 L1066.221,947.692 L1066.0136,949.307774 L1064.642,949.576 L1064.45552,949.755556 C1062.45108,951.618003 1059.75987,952.81047 1056.26115,953.681678 L1055.77903,953.798521 L1055.30755,953.906939 C1054.56695,954.072965 1053.80766,954.224266 1052.93298,954.383533 L1049.67613,954.950763 L1045.74508,955.723327 L1040.81191,956.684952 L1039.46794,956.956884 L1038.06844,957.248701 C1029.82425,958.996532 1024.28832,960.706429 1019.1374,963.316196 C993.167951,976.950101 967.422652,983.501731 940.235131,984.265281 C918.571606,984.873692 897.101784,982.014121 869.075961,975.637128 L863.367652,974.314014 L860.050601,973.5254 L855.975124,972.536211 C854.699871,972.223761 853.329124,971.885578 851.811055,971.509092 L832.095352,966.590762 L825.880854,965.064985 L822.266802,964.190846 C808.204292,960.812662 798.702438,958.821242 787.86865,957.003932 C768.898935,953.821864 751.627752,952.529971 734.62062,953.330057 L733.312876,953.395732 L732.548996,953.436523 L731.858854,953.106553 C696.88769,936.386216 668.172341,912.097726 642.071898,879.150321 L640.308786,876.911032 L639.207507,875.497864 C621.31129,852.439282 607.778541,830.348254 582.069744,784.618105 L575.349401,772.656865 L570.624525,764.294571 L567.544249,758.878217 C554.049282,735.223171 545.331447,721.000257 534.603069,705.345648 C517.295755,680.091202 499.705506,659.601298 479.94378,642.565746 L478.937066,641.702502 L478.815589,641.593032 C474.894439,637.860839 472.251934,634.492099 470.583614,630.71563 L470.395422,630.27803 L470.102838,629.578808 L470.623183,624.270892 L471.166379,618.585785 C475.522577,572.403106 480.133882,509.376784 484.999246,429.514755 L485.875,415 L462.141643,405.782949 L451.17752,401.564841 L448.798846,400.662218 L445.988106,399.606775 L443.130953,398.542644 L440.319674,397.504841 C428.233677,393.063873 417.377736,389.347506 406.945137,386.134656 L404.591722,385.416467 C379.218463,377.745091 357.808995,373.621494 340.028419,373.540841 L339.210352,373.539991 L335.470711,373.549274 L335.603,372.944 L335.490912,372.931454 C334.629367,372.823766 333.823991,372.657784 333.078984,372.419831 L332.711531,372.294793 L332.354257,372.15738 C329.300358,370.910944 327.818382,368.16876 329.002377,364.890167 L329.098,364.636 L329.727009,362.361169 C351.710835,283.12769 381.469831,220.984209 422.677564,171.67211 L423.929791,170.181727 L425.214822,168.668998 C470.914615,115.168912 530.92806,76.7013775 609.281093,51.8838172 L611.661046,51.1359467 L616.342031,49.6766639 Z" id="Top" fill="#78E185"/><path d="M1025,2417 C1006.17345,2413.60653 898,2389 836,2357 C823.337201,2350.46436 826.453847,2335.02054 830.579846,2324.99335 C832.470122,2320.39952 836.942581,2316.94258 836,2316 C816.176593,2296.17659 831,2244 831,2234 C831,2219.13541 855.093164,2199.0112 851,2191 C846.274671,2181.75152 852.084665,2213.3843 864,2231 C874.38525,2246.35361 890.685719,2247.54141 892.302419,2246.86778 L892.594569,2246.74297 L892.803077,2246.63168 C897.286657,2244.17704 964.991277,2146.64411 993,2161 C1006.18145,2167.75616 1013.26331,2197.6335 1028,2210 C1061.04763,2237.73237 1077,2282 1200,2339 C1213.16526,2345.10097 1213.2807,2358.15097 1210.59633,2368.3596 C1209.60685,2372.12257 1223,2372 1221,2374 C1215.91853,2379.08147 1230.01454,2408.27842 1219,2413 C1175.66538,2431.57618 1063.14852,2423.87625 1025,2417 Z M322.021086,1836 C326.759548,1841.93152 329.085853,1846.26485 329,1849 C327.939146,1882.79739 319.900115,1907.69348 319.649215,1924.31251 L319.633569,1925.43497 L319.661551,1925.84629 C320.147908,1932.58821 330.44517,1958.48206 353,1964 C361.49265,1966.07769 378.159317,1962.41102 403,1953 C388.808873,1992.20139 380.47554,2029.53472 378,2065 C375.08376,2106.77888 377.43731,2154.16105 372,2191 C369.031856,2211.10982 358.283328,2233.48744 346,2249 C342.989812,2252.80155 356.07563,2259.99824 353,2263 C347.240042,2268.62161 333,2288 289,2273 C276.192362,2268.63376 238.928067,2244.37235 218,2198 C202.712636,2164.1263 201.274284,2114.77833 199,2071 C196.486574,2022.61837 205.826056,1947.11852 218,1906 C231.537429,1860.2762 248.368812,1851.34204 251.856639,1848.80951 C252.67153,1848.21782 278.007946,1843.21415 280.447377,1842.94164 L280.873266,1842.89597 L281.209569,1842.86297 L281.395146,1842.79065 C291.342373,1838.94111 302.714613,1837.08685 317.669945,1836.22818 L318.590072,1836.17685 L322.021086,1836 Z" id="Shoes" fill="#FFF"/><path d="M1217.22933,2406.4866 C1123.05833,2448.7746 952.058327,2395.4176 859.528327,2364.5456 C834.579327,2355.5446 826.268327,2353.7806 833.258327,2325.0166 C846.338327,2350.2596 874.468327,2356.3556 901.418327,2361.4166 C992.708327,2382.2276 1085.77833,2420.6496 1183.40933,2401.9026 C1197.73933,2399.6466 1211.91833,2391.8876 1216.08833,2377.5696 C1218.65933,2383.6376 1217.06933,2391.8556 1218.09833,2398.5286 C1218.28933,2401.1886 1218.34833,2404.0656 1217.22933,2406.4866 M836.358327,2249.1966 C838.058327,2232.2436 840.778327,2214.3346 850.428327,2199.3546 C849.378327,2223.5826 863.928327,2264.7636 895.808327,2251.0446 C904.838327,2246.2586 909.899327,2236.6216 915.708327,2228.8826 C935.018327,2203.4226 959.778327,2181.3146 987.749327,2165.2496 C1003.30833,2167.9256 1009.99933,2196.3786 1020.02833,2208.2876 C1008.84833,2213.2716 988.588327,2224.6236 986.539327,2236.3656 C1000.49933,2231.6696 1013.34833,2222.9246 1027.98933,2219.8516 C1032.67833,2226.3236 1037.64933,2232.6006 1042.86933,2238.6646 C1036.04833,2241.6686 1008.54833,2255.5686 1008.72933,2262.5076 C1023.59833,2260.0916 1038.00833,2252.8116 1052.95833,2249.8206 C1059.60833,2256.4156 1065.65933,2263.5136 1072.27833,2270.1306 C1062.27833,2274.2496 1051.71833,2278.8486 1046.25833,2288.4486 C1045.99933,2288.8826 1046.63833,2289.3676 1046.98933,2288.9486 C1054.47933,2279.9176 1067.36933,2278.2596 1078.53933,2276.2276 C1095.67833,2292.3666 1114.86933,2306.6036 1136.34833,2317.2546 C1157.83833,2329.0056 1190.49933,2331.6936 1199.04833,2357.1846 C1205.88833,2382.6686 1184.55833,2385.3896 1164.87833,2387.1896 C1144.96833,2390.0216 1124.91833,2390.4516 1105.13833,2388.7976 C1043.30833,2386.2206 984.858327,2368.0176 926.428327,2352.1136 C854.989327,2338.9646 831.808327,2328.3166 836.358327,2249.1966 M857.308327,2100.1676 C857.138327,2101.2876 856.989327,2102.4076 856.829327,2103.5376 C856.628327,2102.3476 856.489327,2101.1476 856.198327,2099.9776 C856.569327,2100.0376 856.938327,2100.1076 857.308327,2100.1676 M972.729327,2157.0836 C945.358327,2177.3256 918.638327,2199.8816 899.628327,2228.1146 C887.048327,2251.0856 870.308327,2237.1036 866.149327,2218.7016 C862.778327,2177.6166 865.678327,2142.1376 861.729327,2100.8076 C899.579327,2105.9676 938.458327,2102.7876 975.428327,2093.6576 C970.979327,2112.1076 968.938327,2119.1116 968.798327,2138.0396 C969.039327,2144.2766 968.948327,2151.8906 972.729327,2157.0836 M1033.99933,644.8576 C1034.80833,705.3276 1035.18833,765.8176 1033.08833,826.2676 C979.858327,688.6876 996.149327,539.3976 988.588327,394.7876 C1004.31933,389.5476 1021.21833,387.2576 1037.42833,385.0176 C1030.91833,474.7776 1032.59833,554.9576 1033.99933,644.8576 M733.168327,950.3576 C602.468327,887.8676 584.388327,727.6476 480.899327,639.3776 C477.558327,636.1976 474.789327,632.9276 473.178327,629.0776 C480.598327,554.1076 480.058327,488.3776 488.829327,413.4876 C498.628327,395.7076 502.499327,375.0576 509.798327,356.1376 C513.619327,344.6176 518.258327,333.2076 519.358327,321.1176 C520.278327,317.1376 514.058327,315.4076 512.899327,319.1676 C499.088327,346.0076 492.218327,375.8576 481.909327,404.1576 C480.458327,404.7376 478.528327,404.2776 477.958327,402.7576 C477.869327,403.1276 477.768327,403.4976 477.678327,403.8676 C433.308327,386.5276 387.558327,370.3776 339.218327,370.4976 C339.249327,370.3476 339.289327,370.1876 339.319327,370.0376 C336.338327,370.1276 330.088327,369.8876 331.958327,365.5676 C374.448327,210.6176 450.739327,104.4076 612.569327,53.9576 C591.878327,174.1876 893.018327,181.1476 888.858327,69.2376 C1002.29833,117.9776 1051.16833,254.8676 1038.30833,370.1276 C1027.52833,367.2176 999.458327,378.6676 988.508327,385.3176 C986.278327,338.5176 991.819327,282.0376 988.558327,240.1876 C971.298327,453.5676 939.088327,708.8876 1045.53933,902.4976 C1052.44833,915.4776 1063.71833,927.8976 1063.43833,943.1376 C1064.26833,943.9776 1064.34833,945.4476 1063.33833,946.5276 C1063.33833,946.5976 1063.33833,946.6676 1063.32933,946.7376 C1063.27833,946.7476 1063.21833,946.7476 1063.15933,946.7476 C1060.06933,950.4276 1053.56933,951.1576 1049.09833,951.9676 C1038.53933,954.0976 1027.42833,955.7176 1017.75833,960.6176 C914.729327,1014.7076 833.918327,944.9776 733.168327,950.3576 M765.729327,1048.6776 C770.708327,1058.1876 779.069327,1065.8376 788.979327,1070.6176 C787.758327,1073.0176 787.338327,1075.7176 787.208327,1078.2476 C769.358327,1081.8976 774.378327,1090.3676 762.319327,1094.4076 C754.428327,1096.5876 746.838327,1097.5176 740.018327,1102.2976 C716.808327,1123.9176 711.048327,1122.3276 686.138327,1103.3076 C686.479327,1101.5876 652.579327,1068.4776 642.079327,1049.9676 C633.329327,1034.5276 624.168327,1018.9776 610.758327,1007.0376 C545.088327,939.7976 475.128327,876.3376 411.558327,807.2376 C284.159327,680.2876 308.468327,536.3376 337.729327,377.7676 C384.958327,383.4076 432.448327,394.7376 474.979327,415.5376 C459.979327,485.5276 459.018327,548.9676 452.558327,619.9876 C450.608327,628.7676 452.808327,645.6776 465.249327,641.7776 C579.598327,732.5676 592.888327,919.1376 742.948327,973.0876 C804.108327,997.9476 778.298327,1018.1276 798.508327,1065.0676 C787.388327,1063.0276 777.468327,1053.7076 772.688327,1044.7876 C770.319327,1040.3576 763.418327,1044.2576 765.729327,1048.6776 M420.088327,993.5976 C417.499327,975.8076 419.518327,958.0976 419.638327,940.2776 C418.249327,907.8276 419.329327,876.1976 420.579327,843.6376 C456.438327,880.7876 493.718327,916.6776 530.338327,953.1376 C491.338327,958.0576 446.358327,962.1076 420.088327,993.5976 M419.428327,1019.7676 C420.039327,1019.5676 420.638327,1019.2976 421.188327,1018.9676 C421.048327,1032.9276 421.268327,1046.8876 421.778327,1060.8276 C420.798327,1047.1476 420.018327,1033.4576 419.428327,1019.7676 M375.558327,2012.0676 C365.039327,2011.2576 320.048327,2009.7076 314.649327,2016.7676 C320.729327,2019.3376 329.088327,2017.9176 335.628327,2018.2076 C348.329327,2018.7276 360.999327,2019.8476 373.569327,2021.6276 C372.628327,2026.5276 371.778327,2031.4176 371.079327,2036.3276 C358.399327,2037.5376 333.708327,2038.0876 325.659327,2046.9576 C340.018327,2049.2476 354.968327,2047.1876 369.378327,2050.0476 C368.678327,2056.7676 368.168327,2063.4976 367.789327,2070.2276 C362.048327,2070.8376 328.289327,2076.4276 328.319327,2081.7376 C340.958327,2083.4176 354.348327,2081.2076 367.229327,2082.4576 C364.438327,2122.7876 373.899327,2244.5776 318.778327,2252.0276 C270.588327,2249.4876 249.448327,2171.3876 242.899327,2133.9176 C228.378327,2046.6176 230.869327,1953.5376 259.649327,1869.3876 C269.928327,1845.9876 297.909327,1841.9276 321.569327,1840.7176 C322.468327,1844.6776 323.358327,1848.5676 324.358327,1852.4876 C314.098327,1875.7476 310.829327,1901.9376 310.548327,1927.1076 C312.718327,1963.2876 357.358327,1990.1876 389.778327,1966.2876 C383.718327,1981.0876 379.039327,1996.4876 375.558327,2012.0676 M311.789327,2272.3376 C216.338327,2251.8176 200.678327,2141.2776 207.239327,2059.9976 C212.588327,2003.4176 206.159327,1884.1276 258.388327,1850.8876 C190.888327,1912.5076 196.749327,2332.0076 346.338327,2258.7876 C342.608327,2270.6076 323.428327,2274.0176 311.789327,2272.3376 M330.489327,1877.9376 C330.659327,1876.4776 330.848327,1875.0276 331.048327,1873.5676 C341.638327,1902.3376 359.778327,1929.6776 386.789327,1946.3376 C376.448327,1959.2376 356.308327,1963.0776 342.718327,1952.5176 C319.018327,1934.7476 328.899327,1902.5976 330.489327,1877.9376 M655.848327,39.9976 C655.659327,40.3276 655.458327,40.6576 655.258327,40.9776 C653.938327,41.0676 652.608327,41.1876 651.258327,41.3376 C652.789327,40.8776 654.319327,40.4476 655.848327,39.9976 M837.239327,50.5576 C837.188327,50.4076 837.138327,50.2576 837.098327,50.1176 C837.218327,50.1876 837.338327,50.2676 837.468327,50.3476 C837.369327,50.4076 837.308327,50.4776 837.239327,50.5576 M1226.49933,2388.9776 C1226.23933,2381.8216 1226.13833,2372.5776 1217.75833,2370.0376 C1221.55833,2339.1986 1195.95833,2321.6436 1169.07933,2313.0986 C1146.15933,2299.0766 1120.16833,2289.2826 1099.10833,2272.3786 C1108.88833,2270.5416 1118.66833,2268.3246 1127.35833,2264.0686 C1133.91833,2260.8586 1130.75833,2250.1716 1123.64933,2251.1616 C1111.05833,2252.8226 1099.74933,2259.2236 1087.91833,2263.6726 C1081.19833,2258.1516 1074.68833,2252.3886 1068.53933,2246.2856 C1076.19833,2244.8056 1085.93833,2245.3506 1090.39933,2237.7466 C1091.78933,2235.3696 1091.16833,2232.9036 1089.48933,2231.0666 C1081.72933,2223.2126 1066.34833,2231.0566 1056.70833,2233.3446 C1052.07933,2228.0086 1047.60833,2222.5646 1043.21833,2217.0556 C1050.49933,2216.3856 1069.43833,2217.7166 1065.72933,2205.6996 C1058.61933,2196.3006 1043.32933,2201.9396 1033.04833,2203.8736 C1020.00833,2187.8386 1015.80833,2163.2386 995.428327,2154.4176 C994.698327,2150.5286 989.619327,2150.8266 986.229327,2151.9826 C981.239327,2128.1566 981.619327,2116.0476 983.079327,2091.6276 C998.208327,2087.4376 1013.21833,2081.9376 1025.79833,2072.9176 C1031.57933,2074.6176 1038.58833,2072.6576 1039.78933,2065.8676 C1043.38733,2041.9436 1045.39633,2014.3286 1047.91933,1989.8876 L1048.83833,1989.8876 C1053.62733,1945.3096 1057.48733,1900.6006 1062.90933,1856.1376 C1093.93833,1599.1276 1100.69833,1285.4276 1043.25833,1031.5176 C1042.80833,1021.8976 1043.48933,1012.2676 1044.45833,1002.7176 C1051.30833,1000.8876 1055.38833,994.1976 1061.05833,990.3276 C1071.59833,981.7376 1082.31933,976.9276 1083.28933,961.9376 C1085.41833,959.9076 1085.66833,956.8376 1084.49933,954.1776 C1087.22933,938.7876 1083.20833,923.5076 1075.01833,910.2076 C1066.03933,895.0576 1057.55833,879.7676 1050.06933,863.8676 C1066.44833,703.6076 1044.22933,548.2876 1056.37833,387.2276 C1071.95833,378.9776 1062.17833,333.1376 1060.72933,317.8576 C1051.62833,217.5076 1004.77833,106.7076 905.168327,64.9676 C898.178327,59.0676 888.418327,57.0676 879.878327,53.8176 C874.108327,50.9776 864.718327,48.5176 860.768327,55.1276 C856.579327,53.1776 843.088327,51.6876 838.468327,48.3076 C837.608327,47.6776 837.058327,46.9876 836.928327,46.2176 C836.588327,46.2276 836.188327,46.1576 835.758327,46.0676 C831.499327,40.0476 827.438327,-1.8824 822.188327,1.1076 C816.458327,15.5076 820.428327,31.7776 825.909327,46.3176 C829.688327,59.1776 834.869327,92.2576 854.948327,83.7976 C858.409327,82.0776 856.268327,77.6076 853.168327,77.2476 C843.649327,74.5276 841.528327,60.5376 837.848327,52.3376 C842.208327,55.9576 862.069327,61.3876 864.239327,62.5376 C907.319327,161.4176 646.848327,156.2276 626.369327,88.0576 C611.768327,64.5076 624.369327,51.7476 650.399327,47.9676 C631.268327,69.2276 655.489327,73.9476 664.698327,53.0976 C673.508327,38.1676 677.518327,20.0276 674.508327,2.8476 C676.058327,-3.1824 677.369327,-11.2424 668.348327,-9.6224 C668.039327,-10.4224 667.548327,-9.7924 667.739327,-9.2224 C664.448327,-3.9824 666.739327,3.5476 665.569327,9.5976 C664.579327,19.4976 661.768327,29.1976 656.999327,37.9576 C648.149327,39.6476 639.338327,41.4576 630.569327,43.4376 C625.308327,32.7476 591.188327,54.0676 582.028327,56.5776 C460.338327,92.5276 367.798327,188.2676 335.499327,309.0276 C328.289327,325.1076 320.508327,341.2676 314.608327,357.8476 C311.968327,365.0276 311.968327,373.9376 319.218327,378.5876 C283.888327,540.6576 275.268327,709.5176 408.739327,831.0776 C411.768327,844.2376 409.749327,858.1976 409.659327,871.5976 C410.778327,902.1176 384.698327,1006.7176 414.989327,1020.2476 C406.138327,1155.7476 439.329327,1340.1176 471.499327,1470.8376 C473.878327,1515.7676 460.329327,1556.6376 423.858327,1584.9876 C354.518327,1636.8276 325.308327,1723.3576 317.198327,1805.8176 C316.048327,1814.2676 317.178327,1822.8676 319.079327,1831.1676 C304.048327,1833.9676 289.979327,1835.7876 275.388327,1841.2976 C194.918327,1825.8776 200.659327,1998.7676 194.499327,2050.0676 C189.678327,2125.9076 192.688327,2216.8176 262.378327,2266.4776 C285.808327,2283.1576 327.168327,2299.1776 349.999327,2273.9176 C356.458327,2266.1876 359.979327,2257.1476 357.438327,2247.2676 C390.168327,2199.3376 382.438327,2138.0776 384.888327,2083.5376 C393.458327,2083.8376 402.798327,2087.6576 411.239327,2085.5576 C417.739327,2083.8376 418.569327,2075.4976 413.069327,2072.1776 C405.128327,2067.6776 394.338327,2069.3876 385.458327,2069.0876 C385.729327,2063.8676 386.119327,2058.6476 386.619327,2053.4276 C395.048327,2055.4876 407.128327,2060.4376 409.638327,2048.6576 C410.649327,2037.9276 397.098327,2037.1076 388.659327,2036.6476 C389.249327,2032.5976 389.909327,2028.5676 390.659327,2024.5476 C397.119327,2025.1976 403.938327,2029.3176 410.289327,2027.3476 C413.888327,2025.9276 415.138327,2022.2876 412.508327,2019.3376 C407.619327,2014.5476 399.258327,2015.5076 392.789327,2014.0176 C396.718327,1994.7676 403.819327,1976.3576 410.659327,1957.9476 C423.039327,1962.2476 436.448327,1965.0876 449.659327,1964.0076 C456.508327,1962.5676 463.989327,1962.1576 470.909327,1963.0876 C478.608327,1961.0476 480.388327,1952.8176 481.399327,1946.0976 C481.249327,1945.8576 481.098327,1945.6276 480.928327,1945.4176 C498.718327,1841.8176 562.539327,1752.3176 634.098327,1675.2076 C653.808327,1653.1476 673.138327,1630.2076 686.528327,1604.0076 C713.729327,1549.2476 718.608327,1487.6376 739.418327,1430.7476 C756.948327,1379.0876 780.378327,1329.5476 803.348327,1279.9376 C812.558327,1345.2776 829.758327,1409.5476 831.729327,1475.8076 C834.729327,1559.6376 816.258327,1642.2476 808.378327,1725.4076 C796.993327,1813.3496 803.058327,1901.7316 802.336327,1989.8876 L802.826327,1989.8876 C802.639327,2011.1456 802.062327,2033.3246 800.739327,2054.5176 C800.789327,2062.2676 801.789327,2069.5676 800.688327,2077.3176 C800.079327,2081.6076 803.159327,2084.2976 806.399327,2084.3876 C818.298327,2092.1976 833.249327,2094.9676 846.928327,2098.3076 C850.718327,2101.2076 849.079327,2108.3476 849.749327,2112.7176 C851.218327,2137.2676 853.159327,2155.7946 850.768327,2180.5456 C837.388327,2200.3296 827.749327,2197.1696 824.028327,2227.2426 C821.979327,2258.6356 817.468327,2292.5836 831.188327,2321.0806 C825.048327,2322.4776 822.718327,2341.2156 823.638327,2346.1746 C825.198327,2360.1586 837.528327,2364.5826 849.448327,2369.4086 C936.558327,2402.0486 1121.64933,2455.7816 1211.15933,2418.8296 C1217.56933,2422.4576 1224.71833,2415.3456 1226.78933,2409.6216 C1229.52833,2402.6516 1227.00833,2395.8996 1226.49933,2388.9776" id="Ink" fill="#000"/></g></g><g id="Head" transform="translate(405.000000, 189.000000) scale(0.9978902953586498 1)"><g id="Head/Bald" stroke="none" stroke-width="1" fill="none" fill-rule="evenodd"><path d="M402.066246,224.220511 C393.015708,186.067037 373.228495,150.560837 341.5498,121.8656 C246.2218,27.6196 71.1588,78.7746 71.9518,220.7966 C68.5328,237.3846 67.1448,254.4406 68.2768,271.3576 C68.7448,278.5756 71.8688,288.6486 67.6718,295.1446 C58.2048,307.2976 52.7028,316.2556 55.9248,332.4216 C58.6168,346.5366 68.2228,356.5366 81.1868,361.8526 C88.9618,364.0836 96.3388,368.9436 99.2188,376.3516 C116.5248,408.0356 129.3458,434.3896 156.6288,455.9826 C163.6688,461.5416 235.874671,494.8836 259.6658,494.8836 C329.317032,494.8836 417.1028,469.6536 418.5598,391.8536 C418.8118,374.7656 415.8128,357.4786 413.9318,340.5256 C409.352962,301.837543 410.968396,261.748438 402.066246,224.220511 Z" id="Skin" fill="#ffdbb4"/><path d="M400.499,205.1369 C400.521,204.6649 401.197,204.5589 401.328,205.0249 C403.917,214.2099 405.384,223.5669 407.409,232.8949 C409.359,241.8799 411.2,250.8909 412.732,259.9549 C415.623077,277.061362 418.059148,294.212131 420.324936,311.407994 L420.888,315.7079 C424.826,345.9649 431.33,377.4859 425.643,407.9199 C420.79,433.8889 404.519,454.8189 383.55,470.1639 C363.695,484.6929 339.622,494.0169 315.72,499.3179 C290.066,505.0089 259.658,506.7069 238.785,487.8949 C230.429,480.3619 241.82,465.4159 250.885,472.2139 C272.17099,488.1727 299.249371,483.468052 323.268105,477.117815 L323.995,476.9249 C345.076,471.3099 366.297,462.7989 383.033,448.4409 C401.536,432.5659 410.685,410.5339 411.742,386.3699 C412.335036,372.793721 411.069307,359.23335 409.704019,345.737205 L409.552,344.2379 C407.985,328.8039 406.341,313.3769 404.824,297.9369 C403.439867,283.857567 402.245636,269.696349 401.614491,255.554063 L401.319968,248.421162 C400.706618,234.040085 399.88087,219.448857 400.499,205.1369 Z M150.8565,85.645 C185.4945,67.612 225.3025,61.158 263.8505,67.21 C300.9085,73.028 334.9185,92.15 360.3395,119.569 C372.7505,132.956 383.7665,148.441 390.8065,165.358 C394.3035,173.762 397.0415,182.529 398.4995,191.533 C399.2495,196.162 399.9865,200.958 400.1275,205.651 C400.2575,209.996 398.9815,214.071 399.1325,218.488 C399.1555,219.179 398.0965,219.312 397.9355,218.65 C396.7315,213.725 393.8305,210.001 392.0105,205.323 C390.650167,201.83 389.107142,198.419877 387.536223,195.020171 L386.1865,192.107 C382.2685,183.64 377.5855,175.521 372.9525,167.431 C363.6235,151.137 351.6535,136.329 337.6375,123.834 C313.0285,101.896 281.4575,87.735 248.5065,85.185 C214.3055,82.537 179.6155,90.689 150.4075,108.747 C121.2015,126.804 99.1175,154.874 87.6515,187.193 C81.8665,203.502 78.6715,220.495 77.9285,237.773 C77.5525,246.519 77.9035,255.338 78.5165,264.067 L78.8209867,268.229562 C79.1777779,273.221416 79.4223261,278.194043 78.6765,283.065 C83.9445,281.422 89.4665,280.741 95.0085,281.554 C103.2435,282.762 108.1635,286.138 111.8575,293.496 C112.0505,293.88 111.6635,294.264 111.2805,294.073 C106.4915,291.683 98.7435,292.941 93.6715,294.194 C88.3935,295.498 83.6395,297.766 79.1545,300.832 C70.8575,306.501 64.3535,315.286 62.7575,325.365 C61.2145,335.101 65.2115,344.959 71.9255,351.937 C75.3815,355.531 79.5125,358.638 84.1375,360.574 C89.7505,362.925 95.3065,362.852 100.2725,366.733 C103.3425,369.132 102.6005,373.237 100.5185,375.901 C110.9955,387.389 120.2865,399.957 130.7625,411.49 C135.6185,416.835778 140.435784,422.187877 145.088634,427.705726 L146.8255,429.783 C151.4715,435.39 158.8635,441.313 160.9865,448.365 C162.3075,452.752 157.6095,458.49 152.8605,456.491 C145.575862,453.423681 140.375613,445.443295 135.453155,439.322478 L135.1325,438.926 C129.9705,432.583 125.3875,425.887 121.1975,418.87 L119.819796,416.558354 C112.243173,403.816009 104.7317,390.6006 99.9005,376.602 C99.5815,376.93 99.2435,377.229 98.8875,377.482 C91.9275,382.431 81.8095,378.626 74.8585,375.412 C68.2965,372.379 62.2805,367.815 57.5915,362.314 C47.3935,350.352 42.6925,334.86 46.0985,319.335 C48.9835,306.184 58.0985,293.392 70.0485,286.74 C64.5325,280.39 62.2485,271.83 60.7285,263.461 C58.7885,252.778 58.4015,241.83 58.9285,230.997 C59.9795,209.42 65.5325,188.151 74.1165,168.393 C89.4745,133.04 116.6265,103.468 150.8565,85.645 Z M77.9552,321.556 C85.2252,320.194 92.0002,319.865 99.0122,322.941 C106.6182,326.28 111.9712,331.792 116.9472,338.25 C122.60901,345.5958 108.098402,353.620809 104.439716,343.868971 L104.3322,343.568 C103.3522,340.681 101.5972,337.89 99.3742,335.321 C98.7072,336.343 97.8152,337.243 96.7672,337.758 C95.4982,338.382 93.5602,337.95 93.2552,336.329 C92.9172,334.53 93.2912,332.35 94.3292,330.827 L94.4712,330.619 L94.4712,330.619 C89.4272,326.56 83.3602,323.595 77.9552,322.641 C77.4152,322.545 77.4212,321.656 77.9552,321.556 Z" id="Ink" fill="#000"/></g></g><g id="Beard" transform="translate(527.000000, 518.000000) scale(1 1)" fill="#000"><g id="Beard/None" stroke="none" stroke-width="1" fill="none" fill-rule="evenodd" fill-opacity="0"/></g><g id="Face" transform="translate(563.000000, 366.000000) scale(1 1)" fill="#000"><g id="Face/Cheeky" stroke="none" stroke-width="1" fill="none" fill-rule="evenodd"><path d="M166.9438,221.352 C168.4778,218.685 172.0098,216.214 175.2418,216.593 C189.7208,218.291 189.6958,235.845 184.1048,246.093 C179.1478,255.18 168.8888,260.514 158.6208,259.735 C147.8338,258.916 138.6428,252.574 134.5978,242.483 C131.9228,235.808 130.6868,223.485 137.8028,219 C137.9348,218.916 138.1528,218.937 138.2578,219.058 C141.6698,223.027 141.8038,228.986 144.7908,233.405 C147.5688,237.515 151.8848,240.909 156.9408,241.433 C160.7168,241.825 164.5368,240.463 166.0138,237.073 C166.812891,235.239364 166.721899,234.243744 166.421516,232.981708 L166.148563,231.885055 C165.202801,228.043565 164.778057,225.118714 166.9438,221.352 Z M170.814304,144.367155 C178.365682,148.9572 189.871664,159.660291 181.748119,171.039573 C172.185929,181.073062 158.418535,169.568982 151.634201,164.366134 C145.343449,160.333898 138.275437,170.704507 144.112,175.412823 C193.135736,211.708059 213.030606,145.567387 174.633685,138.970386 C170.406047,138.243425 168.835891,142.947174 170.814304,144.367155 Z M91.0715,112.8926 C95.7065,105.9386 106.2865,106.9626 108.8395,115.2146 C110.2225,119.6846 108.3125,123.7026 108.4115,128.1666 C108.4945,131.9376 108.2475,136.1396 107.0915,139.7916 C104.4555,148.1196 96.9655,154.0016 88.1045,153.7576 C79.2725,153.5146 71.4935,147.9246 67.7945,140.0516 C64.0825,132.1486 64.8685,123.9696 67.5785,115.9336 C67.7085,115.5476 68.2145,115.3606 68.5195,115.6856 C71.7228333,119.089767 74.0678333,122.683517 76.4943148,126.495785 L78.9809333,130.40279 C80.8812656,133.344819 83.6431037,137.103142 87.1914615,136.867072 L87.7238987,136.814547 C88.7099852,136.729908 88.5588846,136.9256 89.3195,135.5816 C89.6715,134.9596 89.6075,133.8036 89.7775,133.0696 L89.8365,132.8216 L89.8365,132.8216 L89.8043384,132.68798 C89.7292832,132.332503 89.6547866,131.66266 89.5942529,130.500284 L89.5815,130.2436 C89.3245,124.8066 87.7875,117.8196 91.0715,112.8926 Z M208.5632,117.5221 C207.7322,108.6281 220.2362,106.6531 224.3932,113.2341 C226.561303,116.665997 227.192546,120.977055 227.67203,125.0615 L227.8962,127.0001 C228.3882,131.1951 228.5832,135.5591 226.7622,139.4721 C223.8942,145.6351 217.6572,148.8931 210.9292,148.3771 C204.5042,147.8831 198.6422,144.1581 195.5522,138.5031 C192.7972,133.4571 190.0582,123.6051 193.4042,118.3421 C193.6062,118.0231 194.0102,117.9821 194.2872,118.2281 C197.4492,121.0351 197.9642,126.1551 199.8442,129.8121 C201.7832,133.5841 204.7242,137.2601 209.1812,137.8331 C213.4452,138.3811 215.0742,136.0521 213.9862,131.9871 C212.5832,126.7391 209.0912,123.1691 208.5632,117.5221 Z M94.4489,60.0159 L96.4937284,59.2327124 C103.499922,56.5860716 113.118768,53.5268605 118.8149,59.2239 C122.3289,62.7369 122.9979,67.9119 120.4899,72.1989 C117.4509,77.3919 111.9999,77.5199 106.7359,78.2849 C100.7489,79.1549 94.6599,80.8089 89.0859,83.1669 C82.8069,85.8239 76.9799,89.1359 71.2709,92.8349 C65.8449,96.3499 60.4379,102.0949 53.9429,103.1779 C53.6779,103.2219 53.3769,103.1079 53.3079,102.8169 C51.8329,96.4669 55.9319,90.2179 59.5899,85.2639 C64.0159,79.2659 69.3789,74.3429 75.3729,69.9289 C81.1579,65.6679 87.7679,62.5889 94.4489,60.0159 Z M221.7162,82.5925 L222.340762,82.4830541 C226.589355,81.7757704 230.439386,81.9386395 233.6412,85.3035 C236.0852,87.8705 237.0272,91.1975 235.8622,94.5915 C234.7872,97.7225 232.3832,100.9035 228.8942,101.5595 C217.1152,103.7755 204.0682,103.4095 192.2302,101.7315 C186.814067,100.963367 181.349151,100.023624 176.073673,98.5415284 L173.646557,97.8379125 C169.242357,96.5798884 164.200291,95.2655909 161.0012,92.0265 C159.8512,90.8625 160.5142,89.1965 161.8902,88.6575 C167.4722,86.4715 175.1232,87.6345 181.0752,87.4635 C187.9992,87.2655 194.9342,86.7465 201.8252,86.0315 C208.5592,85.3315 215.0752,83.8105 221.7162,82.5925 Z" id="Ink" fill="#000"/></g></g><g id="Mask" transform="translate(428.000000, 479.000000) scale(1 1)" fill="#000"><g id="Mask/None" stroke="none" stroke-width="1" fill="none" fill-rule="evenodd" fill-opacity="0"/></g><g id="Accessories" transform="translate(451.000000, 421.000000) scale(1 1)" fill="#000"><g id="Accessories/None" stroke="none" stroke-width="1" fill="none" fill-rule="evenodd" fill-opacity="0"/></g></g></svg>