<svg viewBox="57.312499999999886 246.82500000000027 1064.3750000000002 2838.4874999999997" xmlns="http://www.w3.org/2000/svg" overflow="visible" xmlns:xlink="http://www.w3.org/1999/xlink" width="1064.3750000000002px" height="2838.4874999999997px"><g id="Master/Character/Standing" stroke="none" stroke-width="1" fill="none" fill-rule="evenodd"><g id="Standing" transform="translate(-121.000000, 634.000000) scale(1 1)"><g id="Standing/Walking 2" stroke="none" stroke-width="1" fill="none" fill-rule="evenodd"><path d="M1212.23541,2373.58175 C1219.27241,2340.82275 1187.08641,2329.74822 1166.79541,2322.46022 C1152.26143,2313.03269 1098.40906,2280.38424 1056.74041,2240.08032 C1022.64331,2207.09997 999.43184,2164.83144 989.769628,2160.80229 C983.13939,2156.95722 979.479984,2153.60604 978.791409,2150.74874 C972.739288,2125.63495 977.786848,2102.22924 978.791409,2087.00422 C998.189409,2081.91122 1013.73341,2075.55822 1025.35841,2066.67422 C1028.74841,2067.80422 1033.83041,2069.25022 1035.34541,2064.29222 C1045.85141,1994.19622 1050.38641,1924.92922 1058.93441,1854.77922 C1091.29041,1587.59822 1094.94041,1275.46222 1039.27541,1031.43222 C1038.69041,1019.33622 1039.74541,1008.41222 1040.82441,998.019225 C1048.35141,997.206225 1052.90241,989.920225 1059.04841,985.565225 C1068.58741,977.984225 1079.88241,972.158225 1079.41641,958.908225 C1081.68241,957.192225 1081.41841,956.227225 1080.30141,954.041225 C1087.57741,922.751225 1055.12241,889.779225 1045.94341,863.983225 C1062.62841,700.789225 1039.92641,546.574225 1052.59141,383.341225 C1068.58841,376.647225 1057.83341,334.809225 1056.74041,317.552225 C1047.87841,206.378225 990.087409,96.4602247 886.017409,60.1412247 C880.068409,58.9352247 871.126409,52.1352247 866.203409,56.7012247 C856.689409,52.9322247 844.031409,60.3632247 836.668409,51.8082247 L836.742409,51.7522247 C830.542409,43.1552247 827.763409,32.2262247 825.725409,21.8922247 C826.066409,24.8042247 826.635409,27.6922247 827.336409,30.5152247 C809.395409,-20.0487753 804.875409,-33.5687753 747.118409,-35.9497753 C721.101409,-36.2977753 686.805409,-35.5167753 671.635409,-10.7027753 C665.419409,0.832224686 667.318409,14.0772247 663.460409,26.2192247 C656.378409,48.5002247 625.808409,37.7332247 609.759409,49.3032247 C481.311409,90.5012247 375.952409,174.593225 341.321409,309.566225 C334.241409,325.834225 326.211409,342.025225 320.292409,358.814225 C319.376409,361.306225 316.856409,369.739225 322.908409,373.620225 L325.835409,375.497225 C287.281409,555.698225 284.723409,707.542225 414.250409,827.675225 C423.970409,879.296225 398.965409,949.791225 408.577409,999.911225 C403.100409,1007.68222 410.045409,1013.94122 417.047409,1014.44022 C417.722409,1014.81522 420.450409,1016.00922 421.194409,1016.35022 C410.051409,1173.66022 456.835409,1385.66622 477.457409,1469.34322 C480.264409,1519.58322 463.117409,1560.85422 427.843409,1588.23422 C388.870409,1612.23822 311.820409,1720.65122 326.104409,1834.37122 C309.411409,1837.64622 292.839409,1839.44222 276.824409,1845.71622 C206.750409,1833.34822 207.445409,1968.43722 202.980409,2015.93622 C195.418409,2095.46622 190.718409,2210.73722 266.271409,2261.64522 C286.175409,2276.08522 326.533409,2292.98922 347.214409,2269.87822 C353.991409,2261.73722 355.688409,2253.87322 353.022409,2245.55922 C387.172409,2197.31022 377.969409,2134.19922 381.106409,2077.60922 C391.009409,2077.01222 401.370409,2081.65722 410.949409,2079.96522 C420.781409,2071.30122 384.913409,2073.66222 381.193409,2073.15422 C381.574409,2064.42722 382.276409,2055.23822 383.182409,2046.44022 C388.808409,2047.56722 396.015409,2050.26722 401.425409,2050.47422 C404.627409,2051.25322 406.890409,2046.84422 404.957409,2044.55922 C400.735409,2040.53222 389.970409,2041.15622 383.912409,2040.58422 C384.935409,2033.21922 386.186409,2025.47622 387.576409,2018.35322 C394.987409,2018.08622 402.640409,2022.80822 409.657409,2021.84222 C404.346409,2018.29822 394.377409,2019.37722 387.903409,2017.03622 C392.113409,1994.09522 400.691409,1972.31822 408.666409,1950.86022 C428.234409,1958.93222 445.115409,1959.25022 464.218409,1956.83022 C472.032409,1958.03222 475.842409,1956.43322 477.107409,1946.65922 L476.608409,1946.04222 C491.749409,1855.44022 540.607409,1769.06722 631.360409,1671.11722 C649.286409,1651.05522 669.543409,1627.43422 683.040409,1601.02422 C710.161409,1546.06222 714.793409,1485.41322 735.690409,1428.33422 C755.200409,1370.96222 781.877409,1316.08322 806.924409,1261.69622 C810.597409,1289.57022 815.531409,1318.16422 820.660409,1345.49522 C843.234409,1442.34822 841.046409,1545.68422 824.433409,1643.07422 C799.853409,1779.47722 811.701409,1916.52722 806.234409,2053.89522 C806.309409,2061.81822 807.291409,2069.01522 806.129409,2077.26422 C805.975409,2077.89922 806.275409,2078.65122 807.027409,2078.63122 L808.446409,2078.67022 C820.260409,2087.32122 836.576409,2088.88422 850.458409,2093.57722 C856.288409,2098.19122 854.646409,2105.49922 855.180409,2111.20122 C856.705409,2135.77222 858.655409,2160.43722 856.235409,2185.76322 C845.523409,2206.28822 832.220409,2202.04822 829.499409,2230.98122 C827.117409,2264.01322 822.903409,2299.13922 838.989409,2328.55222 L832.903409,2329.60222 C823.871409,2348.55522 829.385409,2360.86122 850.613409,2368.87722 C955.411409,2409.96722 1102.87741,2447.27322 1212.23541,2416.25822 C1214.22325,2418.22924 1217.11405,2416.18434 1219.37425,2413.0866 C1221.54612,2410.10993 1223.13572,2406.16112 1222.78241,2403.86922 C1220.91241,2393.80922 1223.48341,2375.44075 1212.23541,2373.58175 Z" id="Skin" fill="#ffdbb4"/><path d="M1025,2417 C1006.17345,2413.60653 898,2389 836,2357 C823.337201,2350.46436 826.453847,2335.02054 830.579846,2324.99335 C832.470122,2320.39952 836.942581,2316.94258 836,2316 C816.176593,2296.17659 831,2244 831,2234 C831,2219.13541 855.093164,2199.0112 851,2191 C846.274671,2181.75152 852.084665,2213.3843 864,2231 C874.38525,2246.35361 890.685719,2247.54141 892.302419,2246.86778 L892.594569,2246.74297 L892.803077,2246.63168 C897.286657,2244.17704 964.991277,2146.64411 993,2161 C1006.18145,2167.75616 1013.26331,2197.6335 1028,2210 C1061.04763,2237.73237 1077,2282 1200,2339 C1213.16526,2345.10097 1213.2807,2358.15097 1210.59633,2368.3596 C1209.60685,2372.12257 1223,2372 1221,2374 C1215.91853,2379.08147 1230.01454,2408.27842 1219,2413 C1175.66538,2431.57618 1063.14852,2423.87625 1025,2417 Z M322.021086,1836 C326.759548,1841.93152 329.085853,1846.26485 329,1849 C327.939146,1882.79739 319.900115,1907.69348 319.649215,1924.31251 L319.633569,1925.43497 L319.661551,1925.84629 C320.147908,1932.58821 330.44517,1958.48206 353,1964 C361.49265,1966.07769 378.159317,1962.41102 403,1953 C388.808873,1992.20139 380.47554,2029.53472 378,2065 C375.08376,2106.77888 377.43731,2154.16105 372,2191 C369.031856,2211.10982 358.283328,2233.48744 346,2249 C342.989812,2252.80155 356.07563,2259.99824 353,2263 C347.240042,2268.62161 333,2288 289,2273 C276.192362,2268.63376 238.928067,2244.37235 218,2198 C202.712636,2164.1263 201.274284,2114.77833 199,2071 C196.486574,2022.61837 205.826056,1947.11852 218,1906 C231.537429,1860.2762 248.368812,1851.34204 251.856639,1848.80951 C252.67153,1848.21782 278.007946,1843.21415 280.447377,1842.94164 L280.873266,1842.89597 L281.209569,1842.86297 L281.395146,1842.79065 C291.342373,1838.94111 302.714613,1837.08685 317.669945,1836.22818 L318.590072,1836.17685 L322.021086,1836 Z" id="Shoes" fill="#FFF"/><path d="M747.450691,949.116602 C761.520165,948.424447 892.110367,987.431941 917.956952,989.631191 L919.78271,989.779095 C953.287364,992.343862 985.62212,986.298033 1022.69909,970.280743 L1023.82409,969.792317 L1025.00257,969.275527 L1034.8839,964.920339 L1036.17196,975.641778 C1079.47208,1336.06017 1077.09612,1692.4181 1028.62937,2032.83267 L1027.14658,2043.14337 L1025.12893,2056.88147 L1022.45575,2058.85829 C998.384981,2076.65868 968.61187,2087.36629 932.17499,2091.78411 C907.762813,2094.74399 881.938754,2094.93435 847.756959,2092.56495 L845.076405,2092.37515 L842.461241,2092.18251 L839.577402,2091.96196 L835.913399,2091.67124 L832.96255,2090.76576 L830.639103,2090.04158 L828.286594,2089.29766 C827.890179,2089.17144 827.491475,2089.04405 827.090298,2088.91546 L824.652062,2088.1288 L822.145558,2087.31014 L819.603023,2086.47026 L816.063,2085.288 L815.979,2085.266 L814.748842,2084.97381 L814.23897,2084.84401 C810.911854,2083.96009 808.572429,2082.54066 806.940068,2079.91682 L806.76159,2079.62029 L806.539549,2079.22059 L804.650357,2075.65391 L806.396474,2072.01504 C812.663882,2058.95392 816.492775,2044.46779 818.227767,2027.49902 L818.335671,2026.41253 L818.472362,2024.94107 L818.586159,2023.62101 C819.538476,2012.15532 814.723207,1843.68111 817.474885,1800.98227 L817.757827,1796.69499 L817.914844,1794.3976 L818.377651,1787.89127 C820.16813,1763.31529 822.241941,1741.40428 826.246873,1705.01418 L827.228497,1696.1507 L828.908661,1681.18202 L832.314175,1651.17215 L833.720008,1638.61769 L834.75916,1629.20483 C841.009571,1572.17482 843.722182,1539.39327 845.098437,1503.81137 L845.185396,1501.51161 L845.27831,1498.92963 L845.369,1496.239 L845.359192,1494.95626 C845.169433,1473.57971 843.004252,1451.20545 838.733971,1425.9451 L838.458539,1424.3288 L838.177383,1422.70455 L837.87831,1421.00323 L836.989438,1416.08297 L836.352414,1412.6567 C833.699395,1398.55782 830.751342,1385.02036 825.751132,1363.83772 L823.480352,1354.27886 L817.297506,1328.51315 C811.101927,1302.5525 807.811127,1287.75325 804.909906,1272.58915 L804.502647,1270.44472 L803.877498,1267.09146 L803.032,1262.449 L802.41831,1262.98978 L801.741403,1263.59917 C799.173636,1265.93885 796.939607,1268.29991 795.82346,1269.95627 L795.68428,1270.16826 L795.553581,1270.37956 C771.439632,1310.72862 750.937059,1355.47793 731.827781,1409.03653 L731.16174,1410.90843 L730.074834,1413.98477 L728.536809,1418.37453 C716.606607,1452.58987 707.29112,1483.27389 689.990945,1544.9019 L688.875732,1548.87796 L686.531849,1557.25395 L680.458106,1579.01372 L679.890178,1580.43086 C670.472172,1603.70714 656.039488,1626.01292 634.260033,1651.48256 L633.407761,1652.47649 L632.504942,1653.52349 L632.392973,1653.64901 L629.63432,1656.63869 L626.966105,1659.5425 L624.366521,1662.38598 C582.13013,1708.7032 550.813941,1748.87548 525.983164,1788.96478 C493.985293,1840.62536 473.916133,1890.8676 465.343642,1941.61056 L465.087388,1943.14838 L464.830088,1944.7369 L463.717685,1951.70665 L456.663634,1951.47159 C420.994925,1950.28297 394.581984,1939.36995 373.918898,1917.55351 C365.779292,1908.95958 358.458005,1898.65756 351.128464,1885.60672 L350.592129,1884.64685 L349.549094,1882.7531 C345.280247,1874.93876 319.571346,1801.54794 325.270947,1772.56729 L325.627993,1770.78426 L326.00898,1768.94688 L326.207778,1768.01201 L326.65115,1765.97934 C330.560706,1748.33871 388.988949,1623.90245 417.051986,1596.0672 L418.021654,1595.1099 L419.001969,1594.15126 L419.186311,1593.97754 L422.549574,1590.97856 L423.857025,1589.80598 L425.162857,1588.62941 L426.707328,1587.22868 L428.227581,1585.83835 C452.550946,1563.4958 464.597916,1547.61616 470.981171,1529.05223 L471.176793,1528.47722 L471.474182,1527.63716 C477.841457,1509.4732 454.355412,1343.97929 450.160351,1316.84424 C433.385695,1208.3402 423.281209,1091.40102 424.950114,1011.95498 L425.018976,1008.96349 L425.181196,1003.11524 L426.972096,1000.98208 C436.277989,989.897777 448.228209,981.878897 463.421302,976.300129 L464.238323,976.003597 L465.49318,975.560957 C475.217716,972.18765 485.595947,969.872009 500.378095,967.713232 L501.288659,967.581251 L503.071378,967.328373 L504.955603,967.068425 L506.864327,966.81202 L523.260545,964.720565 L527.152059,964.207268 C531.411128,963.634152 534.743035,963.142509 537.740415,962.642191 L539.832507,962.28213 L541.456507,961.98705 L543.477405,961.600859 L548.703145,960.552637 L552.98813,964.634658 L553.605781,965.231918 C554.288094,965.894511 554.958148,966.554719 555.693248,967.289308 L556.142732,967.739602 L557.623774,969.23632 L561.74067,973.442512 C571.755869,983.646693 576.725146,987.786722 583.013949,991.046391 L583.314439,991.200969 L583.922013,991.506629 L585.371068,992.216218 L588.24438,994.906529 L589.980508,996.543256 L591.634441,998.11385 C609.085642,1014.74793 620.473027,1027.62515 629.671114,1041.39259 L630.100686,1042.0386 L630.938152,1043.31587 L631.586048,1044.31941 L632.281236,1045.63893 C645.783706,1071.1146 661.58248,1090.31842 681.280839,1104.97466 L682.070857,1105.55849 L682.971743,1106.21609 L683.068682,1106.28931 L686.057177,1108.64186 L687.442273,1109.71837 L688.463997,1110.50143 L689.4564,1111.2507 C703.563128,1121.81834 712.638559,1125.0117 720.652211,1122.5168 L720.931332,1122.42747 L721.804136,1122.1334 L722.316872,1121.94701 C724.602583,1121.08135 726.633069,1119.82843 729.879337,1117.20779 L730.621341,1116.60251 L731.741747,1115.66858 L732.543988,1114.98854 L735.198945,1112.70807 L736.086537,1111.95591 L737.042644,1111.15763 C742.349855,1106.7664 745.83168,1104.592 750.397038,1102.92383 L750.802749,1102.77791 L751.662598,1102.47998 L757.170051,1101.36727 L758.52124,1101.08544 L759.513502,1100.87049 C768.906026,1098.7917 772.588456,1096.64197 776.740226,1090.72533 L776.955422,1090.41592 L777.382053,1089.78702 L779.450519,1086.64056 L783.214475,1085.87539 L783.758848,1085.75788 C791.714558,1083.98629 793.966927,1081.74484 793.154157,1077.86275 L793.111725,1077.6705 L793.051115,1077.41898 L789.467489,1063.18334 L803.360657,1067.88385 L808.471379,1069.59828 L809.087,1069.808 L806.96548,1064.92719 L806.16733,1063.06368 L805.626538,1061.78433 C801.758884,1052.57661 800.028105,1047.12735 798.951931,1040.58632 L798.879553,1040.13859 L798.742888,1039.25765 L798.674204,1037.44636 C797.000894,995.968065 788.502124,983.919896 747.240913,965.589163 L745.980519,965.031727 L744.649771,964.448449 L713.421095,950.822663 L747.450691,949.116602 Z" id="Pants" fill="#FFCF77"/><path d="M1216.7295,2406.4866 C1122.5585,2448.7746 951.5585,2395.4176 859.0285,2364.5456 C834.0795,2355.5446 825.7685,2353.7806 832.7585,2325.0166 C845.8385,2350.2596 873.9685,2356.3556 900.9185,2361.4166 C992.2085,2382.2276 1085.2785,2420.6496 1182.9095,2401.9026 C1197.2395,2399.6466 1211.4185,2391.8876 1215.5885,2377.5696 C1218.1595,2383.6376 1216.5695,2391.8556 1217.5985,2398.5286 C1217.7895,2401.1886 1217.8485,2404.0656 1216.7295,2406.4866 M835.8585,2249.1966 C837.5585,2232.2436 840.2785,2214.3346 849.9285,2199.3546 C848.8785,2223.5826 863.4285,2264.7636 895.3085,2251.0446 C904.3385,2246.2586 909.3995,2236.6216 915.2085,2228.8826 C934.5185,2203.4226 959.2785,2181.3146 987.2495,2165.2496 C1002.8085,2167.9256 1009.4995,2196.3786 1019.5285,2208.2876 C1008.3485,2213.2716 988.0885,2224.6236 986.0395,2236.3656 C999.9995,2231.6696 1012.8485,2222.9246 1027.4895,2219.8516 C1032.1785,2226.3236 1037.1495,2232.6006 1042.3695,2238.6646 C1035.5485,2241.6686 1008.0485,2255.5686 1008.2295,2262.5076 C1023.0985,2260.0916 1037.5085,2252.8116 1052.4585,2249.8206 C1059.1085,2256.4156 1065.1595,2263.5136 1071.7785,2270.1306 C1061.7785,2274.2496 1051.2185,2278.8486 1045.7585,2288.4486 C1045.4995,2288.8826 1046.1385,2289.3676 1046.4895,2288.9486 C1053.9795,2279.9176 1066.8695,2278.2596 1078.0395,2276.2276 C1095.1785,2292.3666 1114.3695,2306.6036 1135.8485,2317.2546 C1157.3385,2329.0056 1189.9995,2331.6936 1198.5485,2357.1846 C1205.3885,2382.6686 1184.0585,2385.3896 1164.3785,2387.1896 C1144.4685,2390.0216 1124.4185,2390.4516 1104.6385,2388.7976 C1042.8085,2386.2206 984.3585,2368.0176 925.9285,2352.1136 C854.4895,2338.9646 831.3085,2328.3166 835.8585,2249.1966 M861.2295,2100.8076 C899.0795,2105.9676 937.9585,2102.7876 974.9285,2093.6576 C972.3715,2104.2626 970.6335,2115.0446 969.5715,2125.8876 L969.6555,2125.8876 C969.2795,2129.3416 968.3315,2133.7996 968.2985,2138.0396 C968.5395,2144.2766 968.4485,2151.8906 972.2295,2157.0836 C944.8585,2177.3256 918.1385,2199.8816 899.1285,2228.1146 C886.5485,2251.0856 869.8085,2237.1036 865.6495,2218.7016 C862.9785,2186.1476 864.2355,2155.1026 862.9115,2123.8876 L862.7925,2123.9056 C862.4475,2116.1986 861.9635,2108.4976 861.2295,2100.8076 M856.8085,2100.1676 C856.6385,2101.2876 856.4895,2102.4076 856.3295,2103.5376 C856.1285,2102.3476 855.9895,2101.1476 855.6985,2099.9776 C856.0695,2100.0376 856.4385,2100.1076 856.8085,2100.1676 M837.7395,2083.6976 C831.4095,2081.7676 825.1195,2079.7176 818.8485,2077.6076 C817.3085,2077.1076 814.7495,2076.9576 813.9285,2075.4076 C837.2685,2026.7676 823.5795,1970.2476 824.6785,1918.2576 C816.5285,1776.4976 849.0395,1637.2376 853.6885,1496.3276 C853.3195,1416.4676 825.5695,1340.3676 811.4795,1262.3676 C825.8885,1231.5376 839.3195,1200.3576 852.3485,1168.9976 C852.7685,1168.0476 851.1595,1167.4576 850.6385,1168.3076 C835.2785,1191.9176 819.9795,1215.5276 805.7395,1239.7876 C736.8195,1342.4876 705.8295,1459.5976 673.1885,1576.3776 C662.6085,1602.9776 645.6285,1626.4176 626.7685,1648.2276 C548.5185,1732.7576 475.4795,1829.1876 457.2495,1943.4076 C384.6285,1940.9876 363.6495,1896.4276 338.2895,1840.2176 C338.3585,1840.0076 338.4285,1839.7976 338.4995,1839.5876 C337.5885,1837.9976 336.9585,1836.2976 336.4585,1834.5376 C336.2295,1834.7176 335.9995,1834.9076 335.7685,1835.0976 C318.8295,1802.7076 342.7985,1735.1676 355.6285,1701.3676 C372.4385,1663.7976 395.0695,1628.8476 424.9095,1599.8076 C446.8885,1580.2876 469.6385,1559.0076 479.0585,1531.0176 C494.7785,1487.2376 480.8995,1438.3376 472.0885,1394.3476 C450.7985,1285.2576 430.1495,1117.4376 433.4185,1006.0576 C460.6285,973.6476 508.3485,976.8476 546.5185,969.1476 C557.6685,979.6476 567.1785,992.0176 581.0985,998.8076 C597.2985,1013.9276 613.0885,1029.7676 624.9895,1048.2876 C638.2495,1073.5776 655.0085,1095.5476 678.5185,1112.5676 C690.3995,1121.9576 707.5285,1135.5776 724.1385,1129.8276 C735.9285,1125.9876 742.4795,1114.1276 754.0885,1110.1476 C768.0395,1107.3076 776.3995,1106.2776 784.6285,1093.7476 C794.5585,1091.7876 804.0285,1086.9176 801.1285,1075.3976 C803.7295,1076.2776 806.3295,1077.1276 808.8885,1078.0176 C814.0795,1079.8176 819.6785,1074.2276 817.9485,1069.3476 C813.6685,1059.2676 808.7085,1049.3276 807.0395,1038.4276 C805.2895,989.8776 792.7685,976.5076 748.1685,957.0476 C766.0185,956.1576 783.5085,960.5276 800.4485,965.3676 C884.9995,996.2976 940.4485,1015.3576 1028.5485,976.5276 C1071.3995,1333.2076 1070.6885,1696.8976 1018.0185,2052.3576 C967.7685,2089.5176 897.7295,2088.5276 837.7395,2083.6976 M330.4895,1877.9376 C330.6595,1876.4776 330.8485,1875.0276 331.0485,1873.5676 C341.6385,1902.3376 359.7785,1929.6776 386.7895,1946.3376 C376.4485,1959.2376 356.3085,1963.0776 342.7185,1952.5176 C319.0185,1934.7476 328.8995,1902.5976 330.4895,1877.9376 M375.5585,2012.0676 C365.0395,2011.2576 320.0485,2009.7076 314.6495,2016.7676 C320.7295,2019.3376 329.0885,2017.9176 335.6285,2018.2076 C348.3295,2018.7276 360.9995,2019.8476 373.5695,2021.6276 C372.6285,2026.5276 371.7785,2031.4176 371.0795,2036.3276 C358.3995,2037.5376 333.7085,2038.0876 325.6595,2046.9576 C340.0185,2049.2476 354.9685,2047.1876 369.3785,2050.0476 C368.6785,2056.7676 368.1685,2063.4976 367.7895,2070.2276 C362.0485,2070.8376 328.2895,2076.4276 328.3195,2081.7376 C340.9585,2083.4176 354.3485,2081.2076 367.2295,2082.4576 C364.4385,2122.7876 373.8995,2244.5776 318.7785,2252.0276 C270.5885,2249.4876 249.4485,2171.3876 242.8995,2133.9176 C228.3785,2046.6176 230.8695,1953.5376 259.6495,1869.3876 C269.9285,1845.9876 297.9095,1841.9276 321.5695,1840.7176 C322.4685,1844.6776 323.3585,1848.5676 324.3585,1852.4876 C314.0985,1875.7476 310.8295,1901.9376 310.5485,1927.1076 C312.7185,1963.2876 357.3585,1990.1876 389.7785,1966.2876 C383.7185,1981.0876 379.0395,1996.4876 375.5585,2012.0676 M311.7895,2272.3376 C216.3385,2251.8176 200.6785,2141.2776 207.2395,2059.9976 C212.5885,2003.4176 206.1595,1884.1276 258.3885,1850.8876 C190.8885,1912.5076 196.7495,2332.0076 346.3385,2258.7876 C342.6085,2270.6076 323.4285,2274.0176 311.7895,2272.3376 M419.4285,1019.7676 C420.0395,1019.5676 420.6385,1019.2976 421.1885,1018.9676 C421.0485,1032.9276 421.2685,1046.8876 421.7785,1060.8276 C420.7985,1047.1476 420.0185,1033.4576 419.4285,1019.7676 M411.5585,807.2376 C284.1595,680.2876 308.4685,536.3376 337.7295,377.7676 C384.9585,383.4076 432.4485,394.7376 474.9795,415.5376 C459.9795,485.5276 459.0185,548.9676 452.5585,619.9876 C450.6085,628.7676 452.8085,645.6776 465.2495,641.7776 C579.5985,732.5676 592.8885,919.1376 742.9485,973.0876 C804.1085,997.9476 778.2985,1018.1276 798.5085,1065.0676 C787.3885,1063.0276 777.4685,1053.7076 772.6885,1044.7876 C770.3195,1040.3576 763.4185,1044.2576 765.7295,1048.6776 C770.7085,1058.1876 779.0695,1065.8376 788.9795,1070.6176 C787.7585,1073.0176 787.3385,1075.7176 787.2085,1078.2476 C769.3585,1081.8976 774.3785,1090.3676 762.3195,1094.4076 C754.4285,1096.5876 746.8385,1097.5176 740.0185,1102.2976 C716.8085,1123.9176 711.0485,1122.3276 686.1385,1103.3076 C686.4795,1101.5876 652.5795,1068.4776 642.0795,1049.9676 C633.3295,1034.5276 624.1685,1018.9776 610.7585,1007.0376 C545.0885,939.7976 475.1285,876.3376 411.5585,807.2376 M1037.4285,385.0176 C1030.9185,474.7776 1032.5985,554.9576 1033.9995,644.8576 C1034.8085,705.3276 1035.1885,765.8176 1033.0885,826.2676 C979.8585,688.6876 996.1495,539.3976 988.5885,394.7876 C1004.3195,389.5476 1021.2185,387.2576 1037.4285,385.0176 M655.8485,39.9976 C655.6595,40.3276 655.4585,40.6576 655.2585,40.9776 C653.9385,41.0676 652.6085,41.1876 651.2585,41.3376 C652.7895,40.8776 654.3195,40.4476 655.8485,39.9976 M837.2395,50.5576 C837.1885,50.4076 837.1385,50.2576 837.0985,50.1176 C837.2185,50.1876 837.3385,50.2676 837.4685,50.3476 C837.3695,50.4076 837.3085,50.4776 837.2395,50.5576 M1225.9995,2388.9776 C1225.7395,2381.8216 1225.6385,2372.5776 1217.2585,2370.0376 C1221.0585,2339.1986 1195.4585,2321.6436 1168.5795,2313.0986 C1145.6595,2299.0766 1119.6685,2289.2826 1098.6085,2272.3786 C1108.3885,2270.5416 1118.1685,2268.3246 1126.8585,2264.0686 C1133.4185,2260.8586 1130.2585,2250.1716 1123.1495,2251.1616 C1110.5585,2252.8226 1099.2495,2259.2236 1087.4185,2263.6726 C1080.6985,2258.1516 1074.1885,2252.3886 1068.0395,2246.2856 C1075.6985,2244.8056 1085.4385,2245.3506 1089.8995,2237.7466 C1091.2895,2235.3696 1090.6685,2232.9036 1088.9895,2231.0666 C1081.2295,2223.2126 1065.8485,2231.0566 1056.2085,2233.3446 C1051.5795,2228.0086 1047.1085,2222.5646 1042.7185,2217.0556 C1049.9995,2216.3856 1068.9385,2217.7166 1065.2295,2205.6996 C1058.1195,2196.3006 1042.8295,2201.9396 1032.5485,2203.8736 C1019.5085,2187.8386 1015.3085,2163.2386 994.9285,2154.4176 C994.1985,2150.5286 989.1195,2150.8266 985.7295,2151.9826 C983.5875,2141.7596 982.4375,2133.6946 981.9345,2125.8876 L981.6845,2125.8666 C981.4615,2114.4466 981.8995,2103.0006 982.5795,2091.6276 C997.7085,2087.4376 1012.7185,2081.9376 1025.2985,2072.9176 C1031.0795,2074.6176 1038.0885,2072.6576 1039.2895,2065.8676 C1049.7495,1996.3276 1054.3995,1925.9276 1062.9095,1856.1376 C1093.9385,1599.1276 1100.6985,1285.4276 1043.2585,1031.5176 C1042.8085,1021.8976 1043.4895,1012.2676 1044.4585,1002.7176 C1051.3085,1000.8876 1055.3885,994.1976 1061.0585,990.3276 C1071.5985,981.7376 1082.3195,976.9276 1083.2895,961.9376 C1085.4185,959.9076 1085.6685,956.8376 1084.4995,954.1776 C1087.2295,938.7876 1083.2085,923.5076 1075.0185,910.2076 C1066.0395,895.0576 1057.5585,879.7676 1050.0695,863.8676 C1066.4485,703.6076 1044.2295,548.2876 1056.3785,387.2276 C1071.9585,378.9776 1062.1785,333.1376 1060.7295,317.8576 C1051.6285,217.5076 1004.7785,106.7076 905.1685,64.9676 C898.1785,59.0676 888.4185,57.0676 879.8785,53.8176 C874.1085,50.9776 864.7185,48.5176 860.7685,55.1276 C856.5795,53.1776 843.0885,51.6876 838.4685,48.3076 C837.6085,47.6776 837.0585,46.9876 836.9285,46.2176 C836.5885,46.2276 836.1885,46.1576 835.7585,46.0676 C831.4995,40.0476 827.4385,-1.8824 822.1885,1.1076 C816.4585,15.5076 820.4285,31.7776 825.9095,46.3176 C829.6885,59.1776 834.8695,92.2576 854.9485,83.7976 C858.4095,82.0776 856.2685,77.6076 853.1685,77.2476 C843.6495,74.5276 841.5285,60.5376 837.8485,52.3376 C842.2085,55.9576 862.0695,61.3876 864.2395,62.5376 C907.3195,161.4176 646.8485,156.2276 626.3695,88.0576 C611.7685,64.5076 624.3695,51.7476 650.3995,47.9676 C631.2685,69.2276 655.4895,73.9476 664.6985,53.0976 C673.5085,38.1676 677.5185,20.0276 674.5085,2.8476 C676.0585,-3.1824 677.3695,-11.2424 668.3485,-9.6224 C668.0395,-10.4224 667.5485,-9.7924 667.7395,-9.2224 C664.4485,-3.9824 666.7395,3.5476 665.5695,9.5976 C664.5795,19.4976 661.7685,29.1976 656.9995,37.9576 C648.1495,39.6476 639.3385,41.4576 630.5695,43.4376 C625.3085,32.7476 591.1885,54.0676 582.0285,56.5776 C460.3385,92.5276 367.7985,188.2676 335.4995,309.0276 C328.2895,325.1076 320.5085,341.2676 314.6085,357.8476 C311.9685,365.0276 311.9685,373.9376 319.2185,378.5876 C283.8885,540.6576 275.2685,709.5176 408.7395,831.0776 C411.7685,844.2376 409.7495,858.1976 409.6595,871.5976 C410.7785,902.1176 384.6985,1006.7176 414.9895,1020.2476 C406.1385,1155.7476 439.3295,1340.1176 471.4995,1470.8376 C473.8785,1515.7676 460.3295,1556.6376 423.8585,1584.9876 C354.5185,1636.8276 325.3085,1723.3576 317.1985,1805.8176 C316.0485,1814.2676 317.1785,1822.8676 319.0795,1831.1676 C304.0485,1833.9676 289.9795,1835.7876 275.3885,1841.2976 C194.9185,1825.8776 200.6595,1998.7676 194.4995,2050.0676 C189.6785,2125.9076 192.6885,2216.8176 262.3785,2266.4776 C285.8085,2283.1576 327.1685,2299.1776 349.9995,2273.9176 C356.4585,2266.1876 359.9795,2257.1476 357.4385,2247.2676 C390.1685,2199.3376 382.4385,2138.0776 384.8885,2083.5376 C393.4585,2083.8376 402.7985,2087.6576 411.2395,2085.5576 C417.7395,2083.8376 418.5695,2075.4976 413.0695,2072.1776 C405.1285,2067.6776 394.3385,2069.3876 385.4585,2069.0876 C385.7295,2063.8676 386.1195,2058.6476 386.6195,2053.4276 C395.0485,2055.4876 407.1285,2060.4376 409.6385,2048.6576 C410.6495,2037.9276 397.0985,2037.1076 388.6595,2036.6476 C389.2495,2032.5976 389.9095,2028.5676 390.6595,2024.5476 C397.1195,2025.1976 403.9385,2029.3176 410.2895,2027.3476 C413.8885,2025.9276 415.1385,2022.2876 412.5085,2019.3376 C407.6195,2014.5476 399.2585,2015.5076 392.7895,2014.0176 C396.7185,1994.7676 403.8195,1976.3576 410.6595,1957.9476 C423.0395,1962.2476 436.4485,1965.0876 449.6595,1964.0076 C456.5085,1962.5676 463.9895,1962.1576 470.9095,1963.0876 C478.6085,1961.0476 480.3885,1952.8176 481.3995,1946.0976 C481.2495,1945.8576 481.0985,1945.6276 480.9285,1945.4176 C498.7185,1841.8176 562.5395,1752.3176 634.0985,1675.2076 C653.8085,1653.1476 673.1385,1630.2076 686.5285,1604.0076 C713.7295,1549.2476 718.6085,1487.6376 739.4185,1430.7476 C756.9485,1379.0876 780.3785,1329.5476 803.3485,1279.9376 C812.5585,1345.2776 829.7585,1409.5476 831.7295,1475.8076 C834.7295,1559.6376 816.2585,1642.2476 808.3785,1725.4076 C794.2085,1834.8576 807.0795,1944.9876 800.2395,2054.5176 C800.2895,2062.2676 801.2895,2069.5676 800.1885,2077.3176 C799.5795,2081.6076 802.6595,2084.2976 805.8995,2084.3876 C817.7985,2092.1976 832.7495,2094.9676 846.4285,2098.3076 C850.2185,2101.2076 848.5795,2108.3476 849.2495,2112.7176 C849.5125,2117.1186 849.7905,2121.5066 850.0565,2125.8876 L850.0875,2125.8876 C851.2915,2144.3846 852.2135,2160.4046 850.2685,2180.5456 C836.8885,2200.3296 827.2495,2197.1696 823.5285,2227.2426 C821.4795,2258.6356 816.9685,2292.5836 830.6885,2321.0806 C824.5485,2322.4776 822.2185,2341.2156 823.1385,2346.1746 C824.6985,2360.1586 837.0285,2364.5826 848.9485,2369.4086 C936.0585,2402.0486 1121.1495,2455.7816 1210.6595,2418.8296 C1217.0695,2422.4576 1224.2185,2415.3456 1226.2895,2409.6216 C1229.0285,2402.6516 1226.5085,2395.8996 1225.9995,2388.9776" id="Ink" fill="#000"/></g></g><g id="Head" transform="translate(405.000000, 189.000000) scale(0.9978902953586498 1)"><g id="Head/Bald" stroke="none" stroke-width="1" fill="none" fill-rule="evenodd"><path d="M402.066246,224.220511 C393.015708,186.067037 373.228495,150.560837 341.5498,121.8656 C246.2218,27.6196 71.1588,78.7746 71.9518,220.7966 C68.5328,237.3846 67.1448,254.4406 68.2768,271.3576 C68.7448,278.5756 71.8688,288.6486 67.6718,295.1446 C58.2048,307.2976 52.7028,316.2556 55.9248,332.4216 C58.6168,346.5366 68.2228,356.5366 81.1868,361.8526 C88.9618,364.0836 96.3388,368.9436 99.2188,376.3516 C116.5248,408.0356 129.3458,434.3896 156.6288,455.9826 C163.6688,461.5416 235.874671,494.8836 259.6658,494.8836 C329.317032,494.8836 417.1028,469.6536 418.5598,391.8536 C418.8118,374.7656 415.8128,357.4786 413.9318,340.5256 C409.352962,301.837543 410.968396,261.748438 402.066246,224.220511 Z" id="Skin" fill="#ffdbb4"/><path d="M400.499,205.1369 C400.521,204.6649 401.197,204.5589 401.328,205.0249 C403.917,214.2099 405.384,223.5669 407.409,232.8949 C409.359,241.8799 411.2,250.8909 412.732,259.9549 C415.623077,277.061362 418.059148,294.212131 420.324936,311.407994 L420.888,315.7079 C424.826,345.9649 431.33,377.4859 425.643,407.9199 C420.79,433.8889 404.519,454.8189 383.55,470.1639 C363.695,484.6929 339.622,494.0169 315.72,499.3179 C290.066,505.0089 259.658,506.7069 238.785,487.8949 C230.429,480.3619 241.82,465.4159 250.885,472.2139 C272.17099,488.1727 299.249371,483.468052 323.268105,477.117815 L323.995,476.9249 C345.076,471.3099 366.297,462.7989 383.033,448.4409 C401.536,432.5659 410.685,410.5339 411.742,386.3699 C412.335036,372.793721 411.069307,359.23335 409.704019,345.737205 L409.552,344.2379 C407.985,328.8039 406.341,313.3769 404.824,297.9369 C403.439867,283.857567 402.245636,269.696349 401.614491,255.554063 L401.319968,248.421162 C400.706618,234.040085 399.88087,219.448857 400.499,205.1369 Z M150.8565,85.645 C185.4945,67.612 225.3025,61.158 263.8505,67.21 C300.9085,73.028 334.9185,92.15 360.3395,119.569 C372.7505,132.956 383.7665,148.441 390.8065,165.358 C394.3035,173.762 397.0415,182.529 398.4995,191.533 C399.2495,196.162 399.9865,200.958 400.1275,205.651 C400.2575,209.996 398.9815,214.071 399.1325,218.488 C399.1555,219.179 398.0965,219.312 397.9355,218.65 C396.7315,213.725 393.8305,210.001 392.0105,205.323 C390.650167,201.83 389.107142,198.419877 387.536223,195.020171 L386.1865,192.107 C382.2685,183.64 377.5855,175.521 372.9525,167.431 C363.6235,151.137 351.6535,136.329 337.6375,123.834 C313.0285,101.896 281.4575,87.735 248.5065,85.185 C214.3055,82.537 179.6155,90.689 150.4075,108.747 C121.2015,126.804 99.1175,154.874 87.6515,187.193 C81.8665,203.502 78.6715,220.495 77.9285,237.773 C77.5525,246.519 77.9035,255.338 78.5165,264.067 L78.8209867,268.229562 C79.1777779,273.221416 79.4223261,278.194043 78.6765,283.065 C83.9445,281.422 89.4665,280.741 95.0085,281.554 C103.2435,282.762 108.1635,286.138 111.8575,293.496 C112.0505,293.88 111.6635,294.264 111.2805,294.073 C106.4915,291.683 98.7435,292.941 93.6715,294.194 C88.3935,295.498 83.6395,297.766 79.1545,300.832 C70.8575,306.501 64.3535,315.286 62.7575,325.365 C61.2145,335.101 65.2115,344.959 71.9255,351.937 C75.3815,355.531 79.5125,358.638 84.1375,360.574 C89.7505,362.925 95.3065,362.852 100.2725,366.733 C103.3425,369.132 102.6005,373.237 100.5185,375.901 C110.9955,387.389 120.2865,399.957 130.7625,411.49 C135.6185,416.835778 140.435784,422.187877 145.088634,427.705726 L146.8255,429.783 C151.4715,435.39 158.8635,441.313 160.9865,448.365 C162.3075,452.752 157.6095,458.49 152.8605,456.491 C145.575862,453.423681 140.375613,445.443295 135.453155,439.322478 L135.1325,438.926 C129.9705,432.583 125.3875,425.887 121.1975,418.87 L119.819796,416.558354 C112.243173,403.816009 104.7317,390.6006 99.9005,376.602 C99.5815,376.93 99.2435,377.229 98.8875,377.482 C91.9275,382.431 81.8095,378.626 74.8585,375.412 C68.2965,372.379 62.2805,367.815 57.5915,362.314 C47.3935,350.352 42.6925,334.86 46.0985,319.335 C48.9835,306.184 58.0985,293.392 70.0485,286.74 C64.5325,280.39 62.2485,271.83 60.7285,263.461 C58.7885,252.778 58.4015,241.83 58.9285,230.997 C59.9795,209.42 65.5325,188.151 74.1165,168.393 C89.4745,133.04 116.6265,103.468 150.8565,85.645 Z M77.9552,321.556 C85.2252,320.194 92.0002,319.865 99.0122,322.941 C106.6182,326.28 111.9712,331.792 116.9472,338.25 C122.60901,345.5958 108.098402,353.620809 104.439716,343.868971 L104.3322,343.568 C103.3522,340.681 101.5972,337.89 99.3742,335.321 C98.7072,336.343 97.8152,337.243 96.7672,337.758 C95.4982,338.382 93.5602,337.95 93.2552,336.329 C92.9172,334.53 93.2912,332.35 94.3292,330.827 L94.4712,330.619 L94.4712,330.619 C89.4272,326.56 83.3602,323.595 77.9552,322.641 C77.4152,322.545 77.4212,321.656 77.9552,321.556 Z" id="Ink" fill="#000"/></g></g><g id="Beard" transform="translate(527.000000, 518.000000) scale(1 1)" fill="#000"><g id="Beard/None" stroke="none" stroke-width="1" fill="none" fill-rule="evenodd" fill-opacity="0"/></g><g id="Face" transform="translate(563.000000, 366.000000) scale(1 1)" fill="#000"><g id="Face/Cheeky" stroke="none" stroke-width="1" fill="none" fill-rule="evenodd"><path d="M166.9438,221.352 C168.4778,218.685 172.0098,216.214 175.2418,216.593 C189.7208,218.291 189.6958,235.845 184.1048,246.093 C179.1478,255.18 168.8888,260.514 158.6208,259.735 C147.8338,258.916 138.6428,252.574 134.5978,242.483 C131.9228,235.808 130.6868,223.485 137.8028,219 C137.9348,218.916 138.1528,218.937 138.2578,219.058 C141.6698,223.027 141.8038,228.986 144.7908,233.405 C147.5688,237.515 151.8848,240.909 156.9408,241.433 C160.7168,241.825 164.5368,240.463 166.0138,237.073 C166.812891,235.239364 166.721899,234.243744 166.421516,232.981708 L166.148563,231.885055 C165.202801,228.043565 164.778057,225.118714 166.9438,221.352 Z M170.814304,144.367155 C178.365682,148.9572 189.871664,159.660291 181.748119,171.039573 C172.185929,181.073062 158.418535,169.568982 151.634201,164.366134 C145.343449,160.333898 138.275437,170.704507 144.112,175.412823 C193.135736,211.708059 213.030606,145.567387 174.633685,138.970386 C170.406047,138.243425 168.835891,142.947174 170.814304,144.367155 Z M91.0715,112.8926 C95.7065,105.9386 106.2865,106.9626 108.8395,115.2146 C110.2225,119.6846 108.3125,123.7026 108.4115,128.1666 C108.4945,131.9376 108.2475,136.1396 107.0915,139.7916 C104.4555,148.1196 96.9655,154.0016 88.1045,153.7576 C79.2725,153.5146 71.4935,147.9246 67.7945,140.0516 C64.0825,132.1486 64.8685,123.9696 67.5785,115.9336 C67.7085,115.5476 68.2145,115.3606 68.5195,115.6856 C71.7228333,119.089767 74.0678333,122.683517 76.4943148,126.495785 L78.9809333,130.40279 C80.8812656,133.344819 83.6431037,137.103142 87.1914615,136.867072 L87.7238987,136.814547 C88.7099852,136.729908 88.5588846,136.9256 89.3195,135.5816 C89.6715,134.9596 89.6075,133.8036 89.7775,133.0696 L89.8365,132.8216 L89.8365,132.8216 L89.8043384,132.68798 C89.7292832,132.332503 89.6547866,131.66266 89.5942529,130.500284 L89.5815,130.2436 C89.3245,124.8066 87.7875,117.8196 91.0715,112.8926 Z M208.5632,117.5221 C207.7322,108.6281 220.2362,106.6531 224.3932,113.2341 C226.561303,116.665997 227.192546,120.977055 227.67203,125.0615 L227.8962,127.0001 C228.3882,131.1951 228.5832,135.5591 226.7622,139.4721 C223.8942,145.6351 217.6572,148.8931 210.9292,148.3771 C204.5042,147.8831 198.6422,144.1581 195.5522,138.5031 C192.7972,133.4571 190.0582,123.6051 193.4042,118.3421 C193.6062,118.0231 194.0102,117.9821 194.2872,118.2281 C197.4492,121.0351 197.9642,126.1551 199.8442,129.8121 C201.7832,133.5841 204.7242,137.2601 209.1812,137.8331 C213.4452,138.3811 215.0742,136.0521 213.9862,131.9871 C212.5832,126.7391 209.0912,123.1691 208.5632,117.5221 Z M94.4489,60.0159 L96.4937284,59.2327124 C103.499922,56.5860716 113.118768,53.5268605 118.8149,59.2239 C122.3289,62.7369 122.9979,67.9119 120.4899,72.1989 C117.4509,77.3919 111.9999,77.5199 106.7359,78.2849 C100.7489,79.1549 94.6599,80.8089 89.0859,83.1669 C82.8069,85.8239 76.9799,89.1359 71.2709,92.8349 C65.8449,96.3499 60.4379,102.0949 53.9429,103.1779 C53.6779,103.2219 53.3769,103.1079 53.3079,102.8169 C51.8329,96.4669 55.9319,90.2179 59.5899,85.2639 C64.0159,79.2659 69.3789,74.3429 75.3729,69.9289 C81.1579,65.6679 87.7679,62.5889 94.4489,60.0159 Z M221.7162,82.5925 L222.340762,82.4830541 C226.589355,81.7757704 230.439386,81.9386395 233.6412,85.3035 C236.0852,87.8705 237.0272,91.1975 235.8622,94.5915 C234.7872,97.7225 232.3832,100.9035 228.8942,101.5595 C217.1152,103.7755 204.0682,103.4095 192.2302,101.7315 C186.814067,100.963367 181.349151,100.023624 176.073673,98.5415284 L173.646557,97.8379125 C169.242357,96.5798884 164.200291,95.2655909 161.0012,92.0265 C159.8512,90.8625 160.5142,89.1965 161.8902,88.6575 C167.4722,86.4715 175.1232,87.6345 181.0752,87.4635 C187.9992,87.2655 194.9342,86.7465 201.8252,86.0315 C208.5592,85.3315 215.0752,83.8105 221.7162,82.5925 Z" id="Ink" fill="#000"/></g></g><g id="Mask" transform="translate(428.000000, 479.000000) scale(1 1)" fill="#000"><g id="Mask/None" stroke="none" stroke-width="1" fill="none" fill-rule="evenodd" fill-opacity="0"/></g><g id="Accessories" transform="translate(451.000000, 421.000000) scale(1 1)" fill="#000"><g id="Accessories/None" stroke="none" stroke-width="1" fill="none" fill-rule="evenodd" fill-opacity="0"/></g></g></svg>